<svg version="1.1" id="svg2" xmlns:dc="http://purl.org/dc/elements/1.1/" xmlns:cc="http://creativecommons.org/ns#" xmlns:rdf="http://www.w3.org/1999/02/22-rdf-syntax-ns#" xmlns:svg="http://www.w3.org/2000/svg" xmlns:sodipodi="http://sodipodi.sourceforge.net/DTD/sodipodi-0.dtd" xmlns:inkscape="http://www.inkscape.org/namespaces/inkscape" sodipodi:docname="Algeria_01_Wilaya_locator_map-2009.svg" inkscape:version="0.47pre4 " xmlns="http://www.w3.org/2000/svg" xmlns:xlink="http://www.w3.org/1999/xlink" x="0px" y="0px" width="982.451px" height="955.452px" viewBox="0 0 982.451 955.452" enable-background="new 0 0 982.451 955.452" xml:space="preserve">
<polygon number="1" id="Adrar" fill="#FFF" stroke="#000" stroke-width="0.75" stroke-linecap="round" points="497.587,465.613   497.505,465.854 496.566,468.893 490.227,478.953 488.604,499.113 484.885,505.474 484.987,517.894 488.686,523.454   483.566,536.334 482.625,554.093 477.927,557.454 477.645,555.814 474.165,556.214 472.385,554.593 467.125,556.214   464.745,561.113 449.785,576.473 455.207,588.554 472.346,612.814 472.645,656.694 472.865,689.593 472.865,690.274   218.284,619.134 204.806,619.954 178.466,629.413 144.625,603.074 170.545,594.613 184.946,580.714 213.306,581.173   219.384,567.733 233.745,548.293 238.384,544.334 246.086,541.173 261.466,542.293 265.024,540.173 271.665,518.254   269.346,515.754 276.066,494.493 288.364,479.433 291.826,471.914 304.905,462.053 318.566,443.453 345.044,436.213   367.427,435.294 370.125,432.993 393.927,455.373 401.927,457.713 408.587,460.313 415.264,460.313 420.264,463.053   426.865,465.053 433.927,465.053 439.587,463.713 442.927,462.373 448.264,460.313 456.927,456.713 470.927,456.373   475.927,458.373 489.285,457.053 495.264,460.313 "/>
<path number="2" id="Chlef" fill="#FFF" stroke="#000" stroke-width="0.75" stroke-linecap="round" d="M485.219,81.029  l0.508-3.518l-2.536-1.818l-1.364-3.214l0.514-2.198l-1.6,0.358l-1.36-1.406l-0.008-2.038l2.66-1.77l-3.658-1.072l2.392-2.338  l-2.992-3.244l0.26-2.344l4.458-3.28l2.196-4.934l-8.664,1.306l-5.338-1.374l-3.18,2.402l-8.416,0.628l-6.11,2.364l-1.98,3.374  l-6.23,2.496l-2,6.566l4.11,0.642l4.346-1.602l0.934,3.788l1.074,0.042l-1.654,3.374l1.018-0.314l1.038,3.994l3.55-1.326  l-0.694,0.488l1.186,0.082l1.082,2.358l3.126,1.97l5.676-1.626l4.344,6.574l0.12-2.828l1.036-0.666l-0.768-0.696l4.524-1.24  l0.072-1.73l2.438-2.328l2.072,3.752L485.219,81.029L485.219,81.029z"/>
<polygon number="3" id="Laghouat" fill="#FFF" stroke="#000" stroke-width="0.75" stroke-linecap="round" points="  605.005,230.093 578.846,228.293 577.307,229.133 571.947,226.913 570.124,227.694 569.525,226.673 568.687,228.173   567.807,227.533 565.926,229.013 550.226,229.733 557.544,234.194 558.206,239.993 541.106,235.913 530.364,239.133   508.706,241.033 502.486,227.894 502.784,224.834 501.505,223.073 509.486,222.793 509.904,214.993 505.744,215.894   498.707,213.633 499.125,210.273 492.885,209.713 493.447,203.993 495.087,201.133 492.807,199.113 492.566,197.133   489.645,196.313 490.145,190.993 489.005,187.893 485.346,184.713 478.365,186.353 475.145,182.773 470.727,180.834   471.044,178.853 469.327,175.933 473.727,173.013 472.104,170.313 479.645,165.873 480.207,168.133 483.487,166.194   484.207,161.313 487.885,157.133 497.645,153.633 502.346,148.493 506.307,146.733 507.165,144.633 513.206,143.893   514.326,156.553 516.826,163.733 517.706,163.573 524.466,173.093 526.864,173.753 531.385,171.613 532.784,172.133   532.726,169.233 537.265,164.653 540.164,166.173 539.926,167.033 542.426,166.173 547.187,179.593 546.885,182.013   550.106,188.413 560.586,191.433 568.544,198.613 571.364,203.273 587.624,209.393 590.606,211.513 598.624,219.353 "/>
<path number="4" id="Oum_El-Bouaghi" fill="#FFF" stroke="#000" stroke-width="0.75" stroke-linecap="round" d="M737.393,75.819  l1.402,0.772l1.064,4.234l3.23,1.478l-1.544,1.378l0.28,2.186l2.622,5.318l-8.094,3.242l-3.758,5.596l-1.248,0.226l-1.32-2.102  l-1.384-0.12l-0.666-2.382l-0.786-0.628l-1.2,1.202l0.358-1.158l-2.626-1.85l-0.82,2.8l-2.096,0.616l0.128-4.328l-3.54-1.752  l-0.238,1.096l-3.632-0.538l-1.914,4.018l-3.298-0.966l0.82-2.032l-1.23-1.06l-8.064,1.216l-1.548-3.19l-4.216-4.826l-3.138-1.432  l-5.342,2.43l-0.704-1.034l0.928-0.77l-1.07-0.73l0.722-1.836l-5.214-0.532l-0.218-1.174l-3.1,2.63l-4.866-2.596l1.606-4.226  l3.3-0.452l1.43,1.02l-0.426-1.542l1.564,0.232l2.438-3.066l0.324-5.582l4.732-1.726l-0.762,0.874l1.188,2.32l2.02,0.738  l-0.928-1.608l2.244,1.206l0.75-2.138l4.486-0.318l0.526-2.888l2.892,2.332l7.242,0.132l-0.404,2.512l2.53,1.102l-0.392,1.914  l1.996,0.332l5.57-2.744l1.366-3.55l2.514-0.152l0.846,4.526l1.472,0.09l1.3,4.24l2.052,2.662l5.346,1.88l-0.062,2.956l5.63-0.428  l-0.708-3.074L737.393,75.819L737.393,75.819z"/>
<path number="5" id="Batna" fill="#FFF" stroke="#000" stroke-width="0.75" stroke-linecap="round" d="M692.12,135.843  l-1.268-4.29l1.622-1.59l-1.224-0.968l0.998-1.16l-2.69-4.512l-1.604-0.292l0.802-1.688l-0.878-2.702l2.614-2.86l-0.46-5.27  l3.286-2.792l-2.102-0.438l0.352-2.876l-1.264-2.666l2.984-2.772l4.834-1.196l1.226-3.028l-1.482-2.982l0.428-2.676l-4.216-4.826  l-3.138-1.432l-5.342,2.43l-0.704-1.034l0.928-0.77l-1.07-0.73l0.722-1.836l-5.214-0.532l-0.218-1.174l-3.1,2.63l-4.866-2.596  l-7.166-0.836l-0.98,0.766l-1.93,1.14l0.89,2.326l-5.612-4.836l-2.428,0.634l-2.848,3.118l0.242,1.548l2.424,0.806l-1.584,2.604  l-1.362-0.478l-1.004,1.082l-4.588-1.896l-0.484,1.37l-1.592-0.156l-2.764,2.184l0.468,2.002l-1.56,3.518l-2.254-0.666l-5.322,5.926  l-3.634,1.812l-1.442-2.136l-2.124-0.024l-1.656,1.842l-0.148-1.574l-1.918,3.012l-3.89-3.396l1.644,8.802l-0.758,5.092  l-1.832,3.094l-1.05-0.372l-2.372,2.346l0.388,1.212l5.858,0.12l4.252,2.794l1.168-0.682l4.036,1.934l1.46,2.204l2.034-0.944  l3.006,1.418l1.114-0.16l0.682-2.222l7.822-0.202l3.574-1.908l0.324-1.866l-1.312-1.95l-2.91-0.56l-0.642-1.904l4.432,0.304  l7.12-4.796l5.634,3.762l3.716-0.438l-4.494,4.242l1.988,2.746l-1.654,2.85l1.528-0.422l1.95,3.534l4.526-5.67l2.05,0.776  l-0.17,2.37l4.26,1.398l1.37-2.896l4.118-0.522l3.302-2.224l2.582,3.252l-1.562,2.252l1.01,1.888l-0.872,5.08l4.912,3.942  L692.12,135.843L692.12,135.843z"/>
<path number="6" id="Béjaïa" fill="#FFF" stroke="#000" stroke-width="0.75" stroke-linecap="round" d="M611.333,52.957  l-0.672,2.248l-4.032,1.838l-0.07,4.98l-8.358,2.196l-1.554-3.402l0.444-1.202l-1.5-1.98l1.484-0.976l0.3-2.61l-1.356-2.65  l3.59-1.662l4.358-4.886l-0.814-1.322l2.518-3.162l-3.556-1.888l0.296-1.292l2.458-0.72l1.41,1.078l1.342-1.308l-0.138-2.676  l-2.798-3.904l7.224-0.812l6.8,2.122l4.076,2.878l3.742,0.728l-0.886,3.43l5.772,3.124l8.652-0.62l0.058,2.632l1.834,0.39  l-0.366,2.954l-4.776,2.146l0.502,1.366l-2.63,2.946l0.94,1.84l-1.496,0.75l-3.312,0.482l0.052-1.87l-1.14,0.396l0.048-5.382  l1.07-1.388l-4.318-2.93l-0.076,0.896l-1.858-0.176l-0.892,2.756l-7.242-0.96l-0.096,2.698L611.333,52.957L611.333,52.957z"/>
<path number="7" id="Biskra" fill="#FFF" stroke="#000" stroke-width="0.75" stroke-linecap="round" d="M699.025,147.493  l-2.1,4.08l1.04,3.86l-3.46,4.38v0.02l-3.3,1.16l-2.9-2.8l-11.46-4.08l-10.62,2.6l-0.14-0.02l-23.72-2.52l-4.4-2.92l-1.16-2.98v-3  l-1.76-1.94l-2.5-1.86l-0.3-2.08l-1.88-1.62l-1.5-3.94c0,0-3.88-0.14-7.46-0.32l2.08-0.62l1.36-3.18l1.08-0.14l-1.1-0.6l-0.88-6.98  l1.16-0.68l4.04,1.92l1.46,2.22l2.04-0.96l3,1.42l1.12-0.16l0.68-2.22l7.82-0.2l3.58-1.9l0.32-1.88l-1.32-1.94l-2.9-0.56l-0.64-1.9  l4.42,0.3l7.12-4.8l5.64,3.76l3.72-0.44l-4.5,4.24l1.98,2.76l-1.64,2.84l1.52-0.42l1.96,3.54l4.52-5.68l2.04,0.78l-0.16,2.38  l4.26,1.4l1.36-2.9l4.12-0.52l3.3-2.24l2.6,3.26l-1.58,2.26l1.02,1.88l-0.88,5.08l4.92,3.94l2.08-0.74v0.02l2.16-1.22l1.48-3.42  l2.28-0.14l-0.8,0.96l2.1,2.1l-0.84,2l1.64-0.4l-1.44,4.78L699.025,147.493z"/>
<polygon number="8" id="Béchar" fill="#FFF" stroke="#000" stroke-width="0.75" stroke-linecap="round" points="426.865,348.354   426.487,348.794 417.427,347.333 414.044,345.474 397.044,345.474 394.044,341.213 389.927,341.213 384.044,335.713   378.927,335.713 377.044,337.333 366.044,337.713 363.044,339.833 356.307,340.093 354.927,341.593 346.307,342.474   343.544,339.213 337.686,339.953 334.927,341.833 313.307,341.833 311.307,344.093 291.927,343.833 281.927,353.213   275.807,353.213 272.807,351.833 270.044,353.953 268.307,355.474 261.427,355.474 259.307,357.093 254.545,357.093   254.545,359.213 249.164,359.213 248.427,357.474 247.164,351.213 245.545,349.474 244.987,345.113 249.245,343.514   250.405,341.974 248.384,338.553 249.806,334.694 250.687,335.233 254.207,330.813 254.327,326.553 253.927,325.233   252.927,326.273 252.144,325.453 251.245,322.273 250.306,322.653 250.284,323.253 248.967,323.673 249.927,324.153   248.384,323.833 248.864,320.553 247.586,319.233 247.347,321.213 246.125,320.694 246.207,322.173 244.927,321.694   244.207,322.914 245.086,318.914 243.827,315.974 245.284,314.653 244.187,313.093 245.927,309.694 247.067,310.694   250.487,308.194 250.245,295.914 286.946,288.953 282.686,276.893 283.905,272.414 297.665,273.233 303.686,271.033   311.785,270.854 316.364,272.333 323.244,270.514 342.044,275.653 356.764,276.794 360.544,274.253 358.104,271.813   354.326,272.273 356.846,270.213 356.686,263.974 358.987,260.113 362.044,259.574 362.364,264.354 365.226,264.593   364.144,270.333 366.905,270.414 367.505,273.533 379.165,267.333 392.745,271.134 396.365,268.474 401.186,269.514   404.447,264.713 402.544,273.493 398.385,272.533 396.186,274.173 394.087,278.613 393.807,286.974 395.165,291.533   393.785,291.653 393.785,291.673 394.145,293.593 392.947,295.294 394.846,297.653 392.365,300.074 394.865,304.093   392.846,306.493 392.905,310.233 394.604,313.873 400.447,318.574 398.807,324.533 "/>
<path number="9" id="Blida" fill="#FFF" stroke="#000" stroke-width="0.75" stroke-linecap="round" d="M551.447,50.251  l0.494-2.556l-1.17-0.54l0.768-0.828l-0.94-1.714l1.072-0.958l-1.772,0.698l-1.512-2.62l-2.018,1.542l-1.22-0.606l-1.404,3.614  l-2.236,0.15l0.216-2.164l-2.982,2.14l-7.542-3.166l0.678,2.046l-4.222,1.198l-2.954,3.294l-2.12,0.28l0.886,1.604l-0.896,1.28  l-3.136-0.604l-2.074,2.928l5.986,4.212l3.018-2.174l5.786,0.408l3.136-2.354l1.342,3.014l2.96,0.016l1.736-1.934l-0.378-2.716  l0.946,1.912l1.466-1.192l1.386,1.396l2.318-2.308l0.166-2.762l3.26,0.538L551.447,50.251L551.447,50.251z"/>
<path number="10" id="Bouira" fill="#FFF" stroke="#000" stroke-width="0.75" stroke-linecap="round" d="M584.046,73.713  l2.936-2.266l0.37-4.77l3.416-1.722l1.59-2.484l2.722,0.184l1.566-1.836l0.444-1.202l-1.5-1.98l1.484-0.976l0.3-2.61l-1.356-2.65  l-5.028,0.532l-0.548-1.068l-2.018,1.084l-11.308,0.326l-2.666-0.658l-1.872-3.274l-1.564,0.08l-1.782-2.474l-9.43-1.418  l-0.96,1.968l-2.732,1.428l-4.176-0.236l-0.494,2.556l5.444,5.258l3.12-2.96l2.716,1.408l-0.876,1.372l1.992,2.782l-2.14,1.196  l-0.884,2.532l2.14,1.956l-0.362,1.618l-2.852,0.828l-0.456,1.708l1.312,2.084l-0.816,0.97l-1.798,1.87l-2.028-0.03l0.958,1.562  l5.576,0.868l2.814,5.298l1.064-1.616l3.074,0.306l1.31,1.848l2.144,0.444l0.698,2.01l1.606,0.096l2.538-2.428l5.084,1.78  l-0.888-2.77L584.046,73.713L584.046,73.713z"/>
<path number="11" id="Tamenrasset" fill="#FFF" stroke="#000" stroke-width="0.75" stroke-linecap="round" d="M891.185,752.194  l-115.12,83.82c-2.74-1.96-5.34-3.88-5.9-4.54c-1.24-1.52-11.74-10-11.74-10h-5.26l-2.24,2l-4.5-0.76l-18.26-13.24h-12.24l-2.5,5  l-2.26,7.48l-3,7.26l-3,6v8.74h-25l-5.24-5.74l-19.24,0.26l-10.52-6.76l-8.24-0.5l-4.24-1.5l-4.26,2.5l-1.74,7.26l1.48,4.48l-1.48,4  l-2.26,9.26l-8.74,1.74l-10.26,10.26h-8.74l-2.76-3l1.24-9.74l1.26-3v-5.52l-2.5-3v-4.48l-4-5l-7.5-2.26l-3.5-3.26l-9.5-0.48  l-5.26-7.26l-6-0.5l-2.74-9l-3.5-6.76l-3-7.24l-4-1.24l-2.76,4.48l-31.48-0.24l-1.7,1.94l-19.98,0.3l-0.24-1.12l-8.84-0.94  l-8.32,1.34l1.26-112.96v-0.68l-0.22-32.9l19.16-15.36l2-7l3.36-16.24l0.88-4.26l1.5-7.24l3.26-3.38l3.88,3.12l6.74-1.24l4.26,3.62  l8.12,1.24l5.62,5.88l20.5-0.74l6.38-7.5l5.24-0.12v8.74l1.26,2.62h6.24l2.12-1.5l3.38,1.5l11.5-11.24l-6.12-10.38l0.38-4.5  l3.12-2.62l-1.5-8.38l-2-2l-3.38-5.38l2.26-1.74l5.5,5.24l5.12-0.74l16-17.26l13-0.74c0,0,2.38,2,3.12,2.38c0.76,0.36,2.62,0,2.62,0  l2.38-4.38l4.14-1l9.86-10v-4.88l3.14-2.5l6.24-8.76l-2.24-5.62v-4.24l4.24-4.88l2.5-4l13.88,0.38l0.36,1.7l0.08,17.42l25.36,22.42  l0.84,3.84l-5.64,4.7l-2.12,6.12l2.36,3.1l4.5,1.2l0.28,2.02l3.06,2.26l11.86,32.28l10.12,12.28l3.26,8.34l7.38,12.48l5.66,4.36  l8.96,0.28l11.18,16.06l-0.48,7.56l2.08,21.88l11.16,24.72l-3.94,4.48l12.48,8.78l34.36-8.32l25.78-19.24l27.8-1.64l3.32,2.04  l4.42-0.1l14.96,8.46L891.185,752.194z"/>
<polygon number="12" id="Tébessa" fill="#FFF" stroke="#000" stroke-width="0.75" stroke-linecap="round" points="  765.125,123.213 762.325,124.833 764.185,132.273 765.945,134.233 762.685,136.853 764.485,138.433 761.725,141.173   762.185,142.553 759.985,142.773 757.784,146.113 747.085,152.093 745.604,160.573 729.085,159.753 720.564,156.773   722.104,146.613 726.325,138.733 726.385,135.334 725.104,133.433 726.604,129.413 724.864,124.653 722.325,124.453   721.005,126.393 720.124,129.093 721.124,128.793 720.945,131.974 719.124,127.753 721.904,120.533 724.505,118.913   727.364,114.033 725.265,110.914 726.844,108.554 725.325,107.393 725.085,102.513 731.344,100.253 732.604,100.013 736.344,94.433   744.445,91.194 744.445,91.173 741.825,85.873 741.544,83.673 743.085,82.293 739.864,80.834 738.784,76.593 737.385,75.813   738.184,73.093 741.945,75.893 745.184,75.834 749.385,71.134 751.904,71.433 756.904,69.213 761.245,71.373 759.925,73.953   760.865,74.774 760.805,83.093 764.725,85.873 765.365,93.453 766.585,95.393 763.805,99.213 763.945,104.414 768.085,107.653   771.145,107.793 766.445,115.353 "/>
<path number="13" id="Tlemcen" fill="#FFF" stroke="#000" stroke-width="0.75" stroke-linecap="round" d="M370.453,122.265  l-1.372,0.14l-0.524-1.82l-6.978-3.496l-0.662,0.66l-0.744-1.544l-2.162,0.91l-4.676-1.586l-1.836,2.672l-2.166,0.528l-2.102-1.336  l0.404-1.908l-1.694-1.246l-7.996,5.854l-1.344-0.71l-4.346,2.336l-6.894,0.496l-3.676-1.688l-2.334,0.828l-0.206,1.9l5.204,4.898  l2.112,1.602l2.776-0.436l0.054,2.98l3.234,1.92l0.178,1.766l6.256,3.432l-5.002,6.418l1.538,0.628l2.74,4.762l2.57,1.164  l-4.238,5.132l3.164,4.312l-0.426,3.614l2.396,7.512l7.22-5.24l9.986,0.044l2.452-2.816l3.058-0.966l12.186-11.266l-0.724-1.586  l-1.914-0.396l3.218-1.902l2.57-5.506l-0.46-1.372l0.994,0.072l-0.548-2.01l-4.75,0.542l0.866-6.388l-2.354,0.482l1.606-2.27  l-2.382-0.092l-1.012-3.654l2.626-4.254L370.453,122.265L370.453,122.265z"/>
<path number="14" id="Tiaret" fill="#FFF" stroke="#000" stroke-width="0.75" stroke-linecap="round" d="M500.835,100.349  l-2.654,0.524l0.442,2.792l13.554,8.214l2.1,3.676l5.374-4.598l2.102,1.592l0.656,2.25l3.496,0.836l-0.016,3.042l-1.356,0.518  l-2.242,4.502l2.86,2.554l-6.456,2.55l-2.894,9.322l-2.94,0.918l0.336,4.854l-6.028,0.746l-0.87,2.088l-3.956,1.772l-4.694,5.13  l-9.754,3.506l-3.678,4.176l-0.73,4.876l-3.288,1.954l-0.546-2.278l-7.55,4.456l1.616,2.69l-4.39,2.92l-2.238-3.154l-0.432-3.686  l-11.082,0.59l1.344-9.764l-7.944-1.654l3.312-5.814l-5.948-2.448l-0.632-1.062l1.51-1.062l-0.9-2.36l-2.122,0.916l-3.462-6.13  l0.77-3.416l-1.112-1.846l6.324-4.658l-3.19-4.866l-2.806-1.264l-0.562-1.982l-6.594,0.776l2.144-3.54l3.104-2.2l-0.492-1.898  l2.35-2.82l2.166-0.322l3.042,1.578l2.224-0.704l1.746-4.212l1.378-0.562l-2.982-3.108l1.802-0.36l3.454-5.756l2.428-0.194  l0.224-1.736l1.622,0.22l0.328-1.826l4.116,0.414l1.136-1.972l2.898-1.144l2.69,3.34l1.178-4.596l2.538,1.86l1.076-0.606  l2.706,1.528l0.122,2.83l3.906-0.348l2.09,3.438l1.626,0.31l0.344-2.094l1.916,1.944l7.594-0.864l4.868-2.674l-1.118,1.342  l3.1,0.134L500.835,100.349L500.835,100.349z"/>
<path number="15" id="Tizi-Ouzou" fill="#FFF" stroke="#000" stroke-width="0.75" stroke-linecap="round" d="M604.687,29.659  l2.798,3.904l0.138,2.676l-1.342,1.308l-1.41-1.078l-2.458,0.72l-0.296,1.292l3.556,1.888l-2.518,3.162l0.814,1.322l-4.358,4.886  l-3.59,1.662l-5.028,0.532l-0.548-1.068l-2.018,1.084l-11.308,0.326l-2.666-0.658l-1.872-3.274l-1.564,0.08l-1.782-2.474  l-0.436-3.388l2.832-0.642l1.69,1.184l-0.33-2.578l2.712,0.626l-1.544-1.726l0.772-2.882l2.084,0.462l0.36-1.21l1.888-0.154  l0.09-1.56l2.708-2.326l-0.27-2.478l10.878-0.642l3.702,0.852l1.972-1.094L604.687,29.659L604.687,29.659z"/>
<path number="16" id="Alger" fill="#FFF" stroke="#000" stroke-width="0.75" stroke-linecap="round" d="M554.025,35.883  l-0.542,1.218l1.316-0.43l0.06,2.04l-4.556,1.49l-1.32-0.966l0.78,1.404l-1.378,1.092l-2.018,1.542l-1.22-0.606l-1.404,3.614  l-2.236,0.15l0.216-2.164l-2.982,2.14l-7.542-3.166l-0.27-2.894l1.22-3.23l1.8-0.348l0.546-1.888l2.41-0.47l3.664,0.176l0.986,2.402  l2.324,1.05l4.238-1.244l0.314-2.59L554.025,35.883L554.025,35.883z"/>
<polygon number="17" id="Djelfa" fill="#FFF" stroke="#000" stroke-width="0.75" stroke-linecap="round" points="629.164,203.393   624.326,213.653 628.744,236.533 605.005,230.093 598.624,219.353 590.606,211.513 587.624,209.393 571.364,203.273   568.567,198.613 568.544,198.613 560.586,191.433 550.106,188.413 546.885,182.013 547.187,179.593 542.426,166.173   539.926,167.033 540.164,166.173 537.265,164.653 532.726,169.233 532.784,172.133 531.385,171.613 526.864,173.753   524.466,173.093 517.706,163.573 516.826,163.733 514.326,156.553 513.206,143.893 512.864,139.033 515.807,138.133   518.706,128.813 525.145,126.253 522.284,123.693 524.525,119.193 525.885,118.673 525.904,115.633 522.404,114.793   521.744,112.554 519.645,110.953 514.284,115.553 512.186,111.873 498.625,103.673 498.186,100.873 500.827,100.354 508.226,99.713   509.544,104.453 513.826,104.113 518.784,102.494 519.244,101.373 524.624,105.194 527.226,103.854 530.426,98.733 534.086,96.013   535.244,96.533 533.885,86.513 539.067,85.113 540.447,89.774 541.846,89.494 542.226,93.893 547.784,92.494 549.307,89.753   549.086,87.334 551.145,85.293 552.864,88.733 555.044,88.634 555.664,91.153 559.486,95.054 568.904,102.673 568.765,106.213   567.025,107.474 567.885,111.354 559.326,118.573 561.586,124.833 565.265,123.353 564.265,126.433 563.164,126.573   564.567,128.473 564.145,134.413 566.947,135.073 567.226,138.373 570.044,137.413 577.864,139.353 579.284,147.853   578.706,151.933 582.364,155.913 581.744,160.073 590.346,167.233 589.466,168.613 591.326,170.893 595.106,171.433   595.885,174.413 600.586,175.194 601.726,176.653 599.326,176.653 596.586,179.593 593.904,179.853 593.106,180.893   594.005,182.273 607.145,187.933 609.307,190.893 615.826,192.133 616.606,194.033 620.525,193.393 621.986,195.834   629.984,197.834 628.947,199.593 "/>
<path number="18" id="Jijel" fill="#FFF" stroke="#000" stroke-width="0.75" stroke-linecap="round" d="M653.146,45.123  l2.226-0.676l2.734,1.444l3.008-0.892l2.484-3.342l9.712,1.624l3.722-2.464l0.866,1.276l5.484,0.962l-0.508-2.774l1.656-0.388  l0.6-1.568l-5.932-2.852l-1.398-6.618l-3.27-0.706l0.556-2.366l-0.916-1.32l-11.544,5.988l-6.968,1.708l-1.714-1.134l-3.352,0.658  l-4.76,2.886l-2.068,4.076l-3.702,1.87l0.058,2.632l1.834,0.39l1.502-0.048l0.806,3.708l1.958,0.154l1.984-1.916l2.498,1.352  L653.146,45.123L653.146,45.123z"/>
<path number="19" id="Sétif" fill="#FFF" stroke="#000" stroke-width="0.75" stroke-linecap="round" d="M653.146,45.123  l1.114,1.434l-0.25,4.096l2.488,1.906l-0.228,2.694l2.788,0.852l-0.194,2.342l4.376,4.734l-1.954,1.042l0.098,3.736l3.426,0.798  l0.572,4.17l-1.38,1.206l2.324,2.426l-2.4,2.586l-1.93,1.14l0.89,2.326l-5.612-4.836l-2.428,0.634l-2.848,3.118l0.242,1.548  l2.424,0.806l-1.584,2.604l-1.362-0.478l-1.004,1.082l-4.59-1.896l-0.484,1.37l-1.592-0.156l-2.764,2.184l0.468,2.002l-1.56,3.518  l-2.254-0.666l-6.986-0.936l-1.096-1.612l0.836-1.072l-0.974-1.036l-2.216,0.48l-2.946-2.084l0.338-1.254l-0.036-3.204l4.176-0.576  l-0.968-5.854l3.338-5.716l-1.938-1.944l0.254-4.156l-1.928-0.548l-2.96-5.09l-2.406-0.726l-1.922,1.308l-5.704,0.594l-1.558-1.966  l0.598-3.75l-2.516-1.344l5.032-2.9l0.096-2.698l7.242,0.96l0.892-2.756l1.858,0.176l0.076-0.896l4.318,2.93l-1.07,1.388  l-0.048,5.382l1.14-0.396l-0.052,1.87l3.312-0.482l1.496-0.75l-0.94-1.84l2.63-2.946l-0.502-1.366l4.776-2.146l0.366-2.954  l1.502-0.048l0.806,3.708l1.958,0.154l1.984-1.916l2.498,1.352L653.146,45.123L653.146,45.123z"/>
<path number="20" id="Saida" fill="#FFF" stroke="#000" stroke-width="0.75" stroke-linecap="round" d="M448.977,158.261  l-5.706-1.468l-9.166,6.268l-3.464-4.592l-5.798,4.018l-4.346-0.506l-4.19-4.254l-4.662-1.526l-3-2.996l-4.4,2.496l-0.274-4.306  l-1.96-2.192l0.512-3.02l4.982,2.498l1.296,3.766l2.24-3.332l-2.756-5.68l-4.226-2.748l-0.588-2.208l-3.54-0.326l0.808-2.382  l-2.658-1.802l2.328-1.602l-0.792-4.174l3.624-0.394l-0.97-3.526l0.704-1.892l2.636-0.806l1.964,0.014l1.33-2.48l0.69,3.952  l5.166-0.378l2.602,1.736l2.162-0.194l0.41,1.812l2.02,1.324l4.988-3.298l1.548,1.78l1.998,0.24l3.082-3.036l6.594-0.776  l0.562,1.982l2.806,1.264l3.19,4.866l-6.324,4.658l1.112,1.846l-0.77,3.416l3.462,6.13l2.122-0.916l0.9,2.36l-1.51,1.062  l0.632,1.062l5.948,2.448L448.977,158.261L448.977,158.261z"/>
<path number="21" id="Skikda" fill="#FFF" stroke="#000" stroke-width="0.75" stroke-linecap="round" d="M719.94,37.151l-1.076,0.7  l-0.836-0.892l-1.1,2.102l-7.168,2.528l-1.306,1.744l0.84,2.488l-5.258,1.396l-0.122,3.084l-2.508-0.26l-0.798-1.4l-2.248,0.416  l0.414-4.026l1.94-2.036l-3.6,0.722l-4.548-0.848l-0.738-2.648l-2.136,2.776l-4.376-0.294l-1.934,0.348l-0.508-2.774l1.656-0.388  l0.6-1.568l-5.932-2.852l-1.398-6.618l-3.27-0.706l0.556-2.366l-0.916-1.32l-0.974-2.092l0.952-2.266l2.922-2.328l5.598-1.284  l3.236,1.656l1.538,4.082l5.768,1.332l1.284-1.046l0.78,0.96l3.292-0.786l1.558,3.198l2.966,0.476l5.276-2.188l3.318,0.082  l4.084-3.856l-0.558-2.09l-3.672-2.596l4.936,0.12l1.73,1.41l-0.54,1.298l1.868,3.116l-0.206,1.056l-1.236-0.218l2.69,2.506  l1.294,6.848l-0.152,1.792l-2.392,0.982L719.94,37.151L719.94,37.151z"/>
<path number="22" id="Sidi_Bel_Abbes" fill="#FFF" stroke="#000" stroke-width="0.75" stroke-linecap="round" d="M391.225,104.837  l-1.284,1.986l0.48,1.928l-3.006,1.494l-0.364-1.344l-5.676,0.994l-0.136,1.456l-1.936,0.912l-1.626-1.096l-1.562,2.79l-1.346-0.358  l0.572,3.892l-2.76,0.922l-0.496,2.902l-1.636,0.95l3.884,2.124l-2.626,4.254l1.012,3.654l2.382,0.092l-1.606,2.27l2.354-0.482  l-0.866,6.388l4.75-0.542l0.548,2.01l-0.994-0.072l0.46,1.372l-2.57,5.506l-3.218,1.902l1.914,0.396l0.724,1.586l-12.187,11.266  l2.16,3.262l4.266-3.134l1.176,2.036l0.684-0.834l5.932,1.788l8.108-5.02l3.686,2.082l6.266,19.538l0.628-2.258l1.708,0.082  l4.182-5.77l3.264-1.422l2.748,0.398l3.004-6.134l1.884-1.382l-2.464-11.018l-3-2.996l-4.4,2.496l-0.274-4.306l-1.96-2.192  l0.512-3.02l4.982,2.498l1.296,3.766l2.24-3.332l-2.756-5.68l-4.226-2.748l-0.588-2.208l-3.54-0.326l0.808-2.382l-2.658-1.802  l2.328-1.602l-0.792-4.174l3.624-0.394l-0.97-3.526l0.704-1.892l2.636-0.806L404,117.171l0.75-1.93l2.954-1.422l-1.91-0.71  l-2.44,2.038l-0.436-1.098l2.624-1.714l0.758-1.974l-5.454-1.71l-0.704-1.264l-1.504,1.764l-3.126-0.24l0.464-4.508l-3.176,1.204  L391.225,104.837L391.225,104.837z"/>
<path number="23" id="Annaba" fill="#FFF" stroke="#000" stroke-width="0.75" stroke-linecap="round" d="M733.24,36.865  l1.144-2.894l-0.854-1.494l1.938-2.28l1.878,0.286l0.062-2.656l2.278-0.018l-0.732-1.37l-2.384-1.736l1.066-4.514l-3.542,1.214  l-2.08-1.422l-1.428,1.006l-4.718-3.972l-4.286,0.378l-0.96-2.258l-4.146,0.698l1.73,1.41l-0.54,1.298l1.868,3.116l-0.204,1.056  l-1.236-0.218l2.69,2.506l1.294,6.848l-0.152,1.792l-2.392,0.982l0.402,2.532l2.302-0.244l0.876,1.752l0.398-1.484l2.208-1.016  l0.35,2.374l5.426,1.006L733.24,36.865L733.24,36.865z"/>
<path number="24" id="Guelma" fill="#FFF" stroke="#000" stroke-width="0.75" stroke-linecap="round" d="M733.24,36.865  l1.872-0.618l1.372,1.002l2.378,5.22l2.338-0.764l0.402,1.086l-0.094-1.542l2.596,1.168l1.84,3.7l-3.664,3.088l-2.046-0.824  l-0.39,2.634l2.158,2.764l-0.748,0.874l-4.436,0.344l-4.32,4.162l-2.39-0.544l-5.038,1.868l-5.706-1.078l-0.99,2.692l1.5,1.838  l-2.514,0.152l-1.366,3.55l-5.57,2.744l-1.996-0.332l0.392-1.914l-2.53-1.102l0.404-2.512l-0.156-1.14l1.712-0.948l0.212-3.372  l-1.122-2.886l-2.446-0.44l1.198-1.432l-2.104-1.114l1.068-1.102l-1.146-1.782l0.122-3.084l5.258-1.396l-0.84-2.488l1.306-1.744  l7.168-2.528l1.1-2.102l0.836,0.892l1.076-0.7l2.302-0.244l0.876,1.752l0.398-1.484l2.208-1.016l0.35,2.374l5.426,1.006  L733.24,36.865L733.24,36.865z"/>
<path number="25" id="Constantine" fill="#FFF" stroke="#000" stroke-width="0.75" stroke-linecap="round" d="M706.7,64.521  l-0.156-1.14l1.712-0.948l0.212-3.372l-1.122-2.886l-2.446-0.44l1.198-1.432l-2.104-1.114l1.068-1.102l-1.146-1.782l-2.508-0.26  l-0.798-1.4l-2.248,0.416l0.414-4.026l1.94-2.036l-3.6,0.722l-4.548-0.848l-0.738-2.648l-2.136,2.776l-4.376-0.294l-0.04,3.198  l-6.596,1.53l0.57,4.042l-1.842,3.756l2.638-0.81l2.252,1.758l-0.528,2.976l1.576,0.992l2.036-0.59l1.874,1.606l-0.216,2.708  l-0.762,0.874l1.188,2.32l2.02,0.738l-0.928-1.608l2.244,1.206l0.75-2.138l4.486-0.318l0.526-2.888l2.892,2.332L706.7,64.521  L706.7,64.521z"/>
<path number="26" id="Médéa" fill="#FFF" stroke="#000" stroke-width="0.75" stroke-linecap="round" d="M565.302,80.571  l0.546,1.59l-2.284,1.372l1.1,0.734l-4.04,1.37l1.72,2.562l0.072,5.932l-5.418-8.31l-1.788,0.28l0.812,1.542l-0.98,0.99l-2.18,0.098  l-1.708-3.432l-2.064,2.04l0.208,2.412l-1.506,2.74l-5.574,1.402l-0.37-4.4l-1.398,0.288l-1.388-4.674l-5.17,1.414l1.352,10.01  l-1.158-0.518l-3.66,2.722l-3.208,5.128l-2.586,1.324l-5.398-3.818l-0.458,1.12l-4.948,1.624l-4.278,0.334l-1.318-4.726l1.42-3.936  l-5.62-1.476l-0.694-2.72l1.008-1.24l4.452,0.458l1.804-7.814l2.1-2.208l-0.674-1.752l3.97,0.148l0.634-5.552l1.722,0.468  l3.684-2.222l0.126-3.686l-2.688-0.61l-0.17-2.738l-1.418-0.398l1.25-3.82l2.692,0.086l1.514-1.228l3.018-2.174l5.786,0.408  l3.136-2.354l1.342,3.014l2.96,0.016l1.736-1.934l-0.378-2.716l0.946,1.912l1.466-1.192l1.386,1.396l2.318-2.308l0.166-2.762  l3.26,0.538l0.96-1.074l5.444,5.258l3.12-2.96l2.716,1.408l-0.876,1.372l1.992,2.782l-2.14,1.196l-0.884,2.532l2.14,1.956  l-0.362,1.618l-2.852,0.828l-0.456,1.708l1.312,2.084l-0.816,0.97l-1.798,1.87l-2.028-0.03l0.958,1.562l5.576,0.868L565.302,80.571  L565.302,80.571z"/>
<path number="27" id="Mostaganem" fill="#FFF" stroke="#000" stroke-width="0.75" stroke-linecap="round" d="M408.625,87.241  l5.928-3.698l4.676-9.342l3.69-3.884l18.374-10.79l3.48-0.116l-2,6.566l-3.958,4.942l2.578,2.7l-1.268,1.398l0.718,1.742  l-4.252,0.186l-1.106,1.21l-2.452-1.144l-1.692,2.036l0.626,1.534l1.348-0.072l-1.18,1.984l0.454,1.82l-2.664,2.874l-1.754-0.746  l-1.734,1.078l-3.488,4.148l-1.806-0.272l-1.212,1.926l-0.06-1.526l-2.14,0.36l-2.058-2.854l-4.504,1.198L408.625,87.241  L408.625,87.241z"/>
<path number="28" id="M_sila" fill="#FFF" stroke="#000" stroke-width="0.75" stroke-linecap="round" d="M637.945,93.433  l-5.32,5.94l-3.64,1.8l-1.44-2.12l-2.12-0.04l-1.66,1.84l-0.14-1.56l-1.92,3l-3.9-3.38l1.64,8.8l-0.74,5.08l-1.84,3.1l-1.06-0.38  l-2.36,2.36l0.38,1.2l5.86,0.12l4.26,2.8l0.88,6.98l1.1,0.6l-1.08,0.14l-1.36,3.18l-2.08,0.62c-0.02,0-0.02,0-0.02,0l-8.78,2.64  l-1.88,3l-2,0.34l2.6,2.18l-2.04,1.08l-1.32-0.88l-3.66,2.28l-9.62,0.08l-1.76,3.66l-4.38,3.66l1.06,0.6l0.82,6.18l2.44,2.54  l-0.62,1.44l3.64,1.86l-1.56,2.02l-3.98,1.04l-8.6-7.16l0.62-4.16l-3.66-3.98l0.58-4.08l-1.42-8.5l-7.82-1.94l-2.82,0.96l-0.28-3.3  l-2.8-0.66l0.42-5.94l-1.4-1.9l1.1-0.14l1-3.08l-3.68,1.48l-2.26-6.26l8.56-7.22l-0.86-3.88l1.74-1.26l0.14-3.54l-9.42-7.62  l-3.82-3.9l-0.62-2.52l0.98-1l-0.82-1.54l1.8-0.28l5.4,8.32l-0.06-5.94l-1.72-2.56l4.04-1.36l-1.1-0.74l2.28-1.38l-0.54-1.58  l1.06-1.62l3.08,0.3l1.3,1.86l2.14,0.44l0.7,2l1.62,0.1l2.54-2.42l5.08,1.78l-0.9-2.78l2.12-6.52l1.14,2.2l4.42-1.52l5.52,1.96  l6.78-2.92l1.72,5.56l-3.22,1.24l-1.38,4.2l5.64,0.58l-0.72-1.98l2.66-1.28l-0.78,2.18l1.32,1.54l4.16-3.14l5.44-1.06l2.64,3.34  l2.34-0.1l0.36,2.44l2.82-1.02l-0.34,1.24l2.94,2.1l2.22-0.48l0.98,1.02l-0.84,1.08l1.1,1.62L637.945,93.433z"/>
<path number="29" id="Mascara" fill="#FFF" stroke="#000" stroke-width="0.75" stroke-linecap="round" d="M422.949,91.662  l1.156,0.388l2.434,7.222l3.432-0.986l0.25,1.048l1.716-1.222l2.564,3.604l3.78-0.082l1.836,1.834l3.442-0.17l0.59,1.324  l4.094,0.636l2.982,3.108l-1.378,0.562l-1.746,4.212l-2.224,0.704l-3.042-1.578l-2.166,0.322l-2.35,2.82l0.492,1.898l-3.104,2.2  l-2.144,3.54l-3.082,3.036l-1.998-0.24l-1.548-1.78l-4.988,3.298l-2.02-1.324l-0.41-1.812l-2.162,0.194l-2.602-1.736l-5.166,0.378  l-0.69-3.952l-1.33,2.48l-1.964-0.014l-1.608-4.406l0.75-1.93l2.954-1.422l-1.91-0.71l-2.44,2.038l-0.436-1.098l2.624-1.714  l0.758-1.974l-5.454-1.71l-0.704-1.264l-1.504,1.764l-3.126-0.24l0.464-4.508l-3.176,1.204l-1.574-0.762l0.638-1.498l2.06-0.17  l-0.74-1.9l3.166-0.76l0.526-3.482l5.25-4.208l-1.334-0.012l1.778-3.066l2.864,2.178l3.162-4.58l2.576,3.154l4.504-1.198  l2.058,2.854l2.14-0.36l0.06,1.526l1.212-1.926L422.949,91.662L422.949,91.662z"/>
<path number="30" id="Ouargla" fill="#FFF" stroke="#000" stroke-width="0.75" stroke-linecap="round" d="M828.485,344.833  l-126.98,32.92l-5.6-1.78l-31.76,17.82l-86.24,66.52l0.3-0.82l-35.06-28.36l16.46-7.26l13.52-28.18l3.16-2.18l20.98-73.42l6.34-16.3  l0.64-14.24l0.9-19.78l13.52-14.62l10.08-18.62l-4.42-22.88l4.84-10.26l7.84,7l1.82-3.72l17.6-0.32v2.24l2.66,3.62  c0,0-0.58,11.26,0,11.08c0.6-0.16,5.68,4.18,5.68,4.18l1.92,4.08l1.58,1.74l5.5,1.76l0.4,11.82l12.84,17.08l4.08,0.42l14.5,5.18  l5.52,2.22l5.06,2.26l3.3,1.62l6.78,0.8l79.46-8.52L828.485,344.833z"/>
<path number="31" id="Oran" fill="#FFF" stroke="#000" stroke-width="0.75" stroke-linecap="round" d="M391.225,104.837  l0.638-1.498l2.06-0.17l-0.74-1.9l3.166-0.76l0.526-3.482l5.25-4.208l-1.334-0.012l1.778-3.066l2.864,2.178l3.194-4.678l-6.864-1.85  l-1.272-1.468l0.56-1.524l-1.792-1.692l-1.962,0.05l-1.35,1.342l-3,0.22l-0.66,4.402l-4.986,3.834l-2.652,0.022l-0.812-1.52  l-5.098-1.476l-1.502,2.678l-1.704,0.508l-1.588-1.18l-5.218,4.528l2.682,2.858l-0.444,1.434l2.016,0.014l-0.766,2.038l-1.786,0.502  l0.348,3.182l0.024-1.242l1.788-0.09l-0.404-1.192l1.642,1.314l3.14,0.042l10.132-3.248l1.552,5.842l-1.544,1.128l-0.054,2.202  l0.364,1.344l3.006-1.494l-0.48-1.928L391.225,104.837L391.225,104.837z"/>
<polygon number="32" id="El_Bayadh" fill="#FFF" stroke="#000" stroke-width="0.75" stroke-linecap="round" points="  508.524,272.113 509.966,289.333 500.665,299.634 458.505,325.993 426.865,348.354 398.807,324.533 400.447,318.574   394.604,313.873 392.905,310.233 392.846,306.493 394.865,304.093 392.365,300.074 394.846,297.653 392.947,295.294   394.145,293.593 393.785,291.673 393.785,291.653 395.165,291.533 393.807,286.974 394.087,278.613 396.186,274.173   398.385,272.533 402.544,273.493 404.447,264.713 410.427,253.194 409.566,248.413 410.365,245.353 408.405,243.153   408.947,240.893 407.285,239.953 407.846,236.273 410.966,234.553 412.145,231.394 410.807,230.513 412.587,228.533   410.905,223.633 416.745,197.433 415.104,191.474 419.346,189.213 417.827,188.993 416.365,185.413 414.865,184.853   415.264,179.553 413.165,178.053 409.566,179.673 409.227,174.733 412.227,168.593 414.104,167.213 411.645,156.194   416.307,157.733 420.505,161.974 424.846,162.493 430.645,158.474 434.104,163.053 443.264,156.793 448.987,158.253   456.927,159.913 455.566,169.673 455.587,169.673 466.665,169.093 467.087,172.773 469.327,175.933 471.044,178.853   470.727,180.834 475.145,182.773 478.365,186.353 485.346,184.713 489.005,187.893 490.145,190.993 489.645,196.313   492.566,197.133 492.807,199.113 495.087,201.133 493.447,203.993 492.885,209.713 499.125,210.273 498.707,213.633   505.744,215.894 509.904,214.993 509.486,222.793 501.505,223.073 502.784,224.834 502.486,227.894 508.706,241.033   509.846,253.394 511.404,259.673 511.426,259.694 513.686,268.754 "/>
<polygon number="33" id="Illizi" fill="#FFF" stroke="#000" stroke-width="0.75" stroke-linecap="round" points="872.145,618.173   855.165,617.214 849.925,619.473 842.425,619.214 835.425,620.954 825.925,620.473 819.925,613.714 816.464,605.214   809.925,596.954 802.685,596.954 793.925,603.214 791.685,607.473 788.165,607.473 784.425,608.954 778.165,612.714   775.925,621.714 763.425,621.954 761.685,623.214 743.924,623.214 730.424,616.214 723.164,614.214 716.164,611.954   711.244,608.654 699.385,576.374 696.325,574.113 696.044,572.093 691.544,570.894 689.184,567.793 691.304,561.673   696.945,556.973 696.104,553.134 670.744,530.714 670.664,513.293 670.304,511.594 663.205,478.134 666.744,461.414   664.145,393.794 695.904,375.974 701.505,377.753 828.485,344.833 833.305,361.354 827.105,363.933 826.185,366.093   827.565,371.313 833.525,378.173 845.844,401.753 851.305,421.694 853.605,435.273 852.105,459.593 859.404,480.533   858.325,490.173 856.005,495.093 853.844,495.833 856.625,496.294 856.145,499.274 854.045,501.554 853.085,507.194   853.344,512.154 857.825,527.334 861.205,531.793 861.404,542.793 859.545,549.413 843.925,557.334 841.765,564.214   839.325,567.314 871.344,607.973 "/>
<path number="34" id="Bord-Bou-Arréridj" fill="#FFF" stroke="#000" stroke-width="0.75" stroke-linecap="round" d="  M624.903,85.927l-0.036-3.204l4.176-0.576l-0.968-5.854l3.338-5.716l-1.938-1.944l0.254-4.156l-1.928-0.548l-2.96-5.09l-2.406-0.726  l-1.922,1.308l-5.704,0.594l-1.558-1.966l0.598-3.75l-2.516-1.344l-0.672,2.248l-4.032,1.838l-0.07,4.98l-8.358,2.196l-1.554-3.402  l-1.566,1.836l-2.722-0.184l-1.59,2.484l-3.416,1.722l-0.37,4.77l-2.936,2.266l1.14,2.208l4.422-1.536l5.51,1.976l6.78-2.922  l1.73,5.548l-3.234,1.25l-1.378,4.19l5.644,0.584l-0.722-1.982l2.658-1.278l-0.772,2.182l1.326,1.532l4.144-3.124l5.44-1.064  l2.658,3.338l2.334-0.098l0.364,2.434L624.903,85.927L624.903,85.927z"/>
<path number="35" id="Boumerdès" fill="#FFF" stroke="#000" stroke-width="0.75" stroke-linecap="round" d="M551.938,47.696  l4.176,0.236l2.732-1.428l0.96-1.968l9.43,1.418l-0.436-3.388l2.832-0.642l1.69,1.184l-0.33-2.578l2.712,0.626l-1.544-1.726  l0.772-2.882l2.084,0.462l0.36-1.21l1.888-0.154l0.09-1.56l2.708-2.326l-0.27-2.478l-6.13-1.048l-6.484,2.07l-1.812,2.158  l-7.7,3.974l-5.644-0.55l-0.542,1.218l1.316-0.43l0.06,2.04l-4.556,1.49l-1.32-0.966l0.78,1.404l-1.378,1.092l1.512,2.62  l1.772-0.698l-1.072,0.958l0.94,1.714l-0.768,0.828L551.938,47.696L551.938,47.696z"/>
<path number="36" id="El-Taref" fill="#FFF" stroke="#000" stroke-width="0.75" stroke-linecap="round" d="M738.955,26.442  l0.732,1.37l-2.278,0.018l-0.062,2.656l-1.878-0.286l-1.938,2.28l0.854,1.494l-1.144,2.894l1.872-0.618l1.372,1.002l2.378,5.22  l2.338-0.764l0.402,1.086l-0.094-1.542l2.596,1.168l1.84,3.7l2.766-0.038l0.544,3.52l1.646-2.514l3.644-1.648l-0.652-1.506  l0.938-0.96l4.652-1.592l4.616-4.26l1.83-0.238l1.394-4.1l-0.848-2.294l-1.726-0.806l5.94-1.064l3.964-2.646l0.356-1.042  l-2.372-0.674l0.398-4.452l-8.904,2.882l-2.858-1.31l-3.644,0.546l-1.964-1.722l-9.47,5.352L738.955,26.442L738.955,26.442z"/>
<polygon number="37" id="Tindouf" fill="#FFF" stroke="#000" stroke-width="0.75" stroke-linecap="round" points="271.665,518.254   265.024,540.173 261.466,542.293 246.086,541.173 238.384,544.334 233.745,548.293 219.384,567.733 213.306,581.173   184.946,580.714 170.545,594.613 144.625,603.074 12.706,502.434 19.087,430.493 28.764,427.053 42.307,416.953 52.327,412.134   60.807,406.134 67.005,404.414 69.005,400.893 78.926,401.173 90.206,394.673 106.587,398.953 110.447,396.493 117.905,396.713   121.604,394.694 124.124,395.634 134.244,394.634 138.744,395.933 150.625,394.014 153.946,395.673 152.586,399.053   155.347,398.134 160.644,401.673 163.826,397.453 173.784,405.813 190.604,406.514 202.226,412.854 213.784,455.213   227.347,480.574 227.504,495.854 239.187,510.054 245.187,514.894 "/>
<path number="38" id="Tissemsilt" fill="#FFF" stroke="#000" stroke-width="0.75" stroke-linecap="round" d="M471.906,84.425  l1.544,1.344l-2.244,2.67l-1.412-0.284l-0.664-1.786l-1.986,1.084l0.412,3.302l-1.302,2.15l2.69,3.34l1.178-4.596l2.538,1.86  l1.076-0.606l2.706,1.528l0.122,2.83l3.906-0.348l2.09,3.438l1.626,0.31l0.344-2.094l1.916,1.944l7.594-0.864l4.868-2.674  l-1.118,1.342l3.1,0.134l-0.06,1.904l7.4-0.632l1.42-3.936l-5.62-1.476l-0.694-2.72l1.008-1.24l4.452,0.458l1.804-7.814  l-3.124-0.262l-1.68-2.218l-2.456-0.11l-0.88-1.874l-5.374,1.418l0.012-2.008l-5.268,5.856l-1.548,0.038l-0.8-2.298l-4.266-0.502  l-3.82-2.34l-2.072-3.752l-2.438,2.328l-0.072,1.73l-4.524,1.24l0.768,0.696l-1.036,0.666L471.906,84.425L471.906,84.425z"/>
<polygon number="39" id="El_Oued" fill="#FFF" stroke="#000" stroke-width="0.75" stroke-linecap="round" points="805.705,267.933   726.244,276.453 715.244,263.733 699.684,240.573 683.484,194.633 681.064,179.313 680.424,180.913 679.385,178.834   677.864,179.053 672.404,183.334 671.304,181.233 673.005,173.713 671.344,170.553 669.844,167.233 666.664,164.213   666.085,156.694 666.224,156.713 676.844,154.113 688.304,158.194 691.205,160.993 694.505,159.834 694.505,159.813   697.964,155.433 698.064,159.753 708.445,166.033 711.544,166.733 711.724,157.573 720.564,156.773 729.085,159.753   745.604,160.573 745.804,162.093 742.604,164.613 739.244,163.273 737.445,167.653 734.044,170.053 735.505,172.413   734.364,178.093 735.624,181.673 734.705,183.673 737.525,185.793 738.064,191.273 745.205,202.433 749.184,214.614   752.364,214.633 761.705,218.493 761.805,221.053 771.325,232.173 773.705,248.493 "/>
<polygon number="40" id="Khenchela" fill="#FFF" stroke="#000" stroke-width="0.75" stroke-linecap="round" points="  720.945,131.974 721.124,128.793 720.124,129.093 721.005,126.393 722.325,124.453 724.864,124.653 726.604,129.413   725.104,133.433 726.385,135.334 726.325,138.733 722.104,146.613 720.564,156.773 711.724,157.573 711.544,166.733   708.445,166.033 698.064,159.753 697.964,155.433 696.924,151.573 699.025,147.493 698.705,140.513 700.145,135.733   698.505,136.133 699.344,134.133 697.244,132.033 698.044,131.073 695.765,131.213 694.284,134.633 692.124,135.834   690.844,131.553 692.464,129.953 691.244,128.993 692.244,127.833 689.564,123.333 687.945,123.033 688.765,121.333   687.885,118.633 690.484,115.773 690.025,110.513 693.325,107.713 691.224,107.293 691.564,104.414 690.304,101.733 693.284,98.974   698.124,97.774 699.344,94.753 697.864,91.753 698.284,89.093 699.844,92.274 707.904,91.054 709.145,92.113 708.325,94.153   711.604,95.113 713.525,91.093 717.164,91.634 717.404,90.533 720.945,92.293 720.804,96.613 722.904,96.013 723.724,93.213   726.344,95.054 725.984,96.213 727.184,95.013 727.984,95.634 728.645,98.033 730.025,98.153 731.344,100.253 725.085,102.513   725.325,107.393 726.844,108.554 725.265,110.914 727.364,114.033 724.505,118.913 721.904,120.533 719.124,127.753 "/>
<path number="41" id="Souk_Ahras" fill="#FFF" stroke="#000" stroke-width="0.75" stroke-linecap="round" d="M761.251,71.377  l-4.35-2.162l-4.998,2.222l-2.51-0.312l-4.204,4.704l-3.244,0.062l-3.754-2.802l-0.794,2.728l-1.636,0.97l0.708,3.074l-5.63,0.428  l0.062-2.956l-5.346-1.88l-2.052-2.662l-1.3-4.24l-1.472-0.09l-0.846-4.526l-1.5-1.838l0.99-2.692l5.706,1.078l5.038-1.868  l2.39,0.544l4.32-4.162l4.436-0.344l0.748-0.874l-2.158-2.764l0.39-2.634l2.046,0.824l3.664-3.088l2.766-0.038l0.544,3.52  l1.646-2.514l3.644-1.648l6.39,1.692l1.49-1.062l2.354,1.272l-1.188,3.434l0.762,2.504l-2.102,2.134l0.79,1.622l-1.736,3.144  l1.666,3.652l-1.736,3.102L761.251,71.377L761.251,71.377z"/>
<path number="42" id="Tipaza" fill="#FFF" stroke="#000" stroke-width="0.75" stroke-linecap="round" d="M484.689,48.213  l-2.196,4.934l2.84,5.216l2.938-2.196l0.576-2.222l7.786,1.612l5.918-1.938l5.456,1.63l9.354,0.02l2.074-2.928l3.136,0.604  l0.896-1.28l-0.886-1.604l2.12-0.28l2.954-3.294l4.222-1.198l-0.678-2.046l-0.27-2.894l-10.376,5.674l-5.454-0.078l-0.962-2.048  l-2.352-0.56l-13.48,4.064l-4.622-0.548L484.689,48.213L484.689,48.213z"/>
<path number="43" id="Mila" fill="#FFF" stroke="#000" stroke-width="0.75" stroke-linecap="round" d="M672.075,79.216  l-7.166-0.836l-0.98,0.766l2.4-2.586l-2.324-2.426l1.38-1.206l-0.572-4.17l-3.426-0.798l-0.098-3.736l1.954-1.042l-4.376-4.734  l0.194-2.342l-2.788-0.852l0.228-2.694l-2.488-1.906l0.25-4.096l-1.114-1.434l2.226-0.676l2.734,1.444L661.117,45l2.484-3.342  l9.712,1.624l3.722-2.464l0.866,1.276l5.484,0.962l1.934-0.348l-0.04,3.198l-6.596,1.53l0.57,4.042l-1.842,3.756l2.638-0.81  l2.252,1.758l-0.528,2.976l1.576,0.992l2.036-0.59l1.874,1.606l-0.216,2.708l-4.732,1.726l-0.324,5.582l-2.438,3.066l-1.564-0.232  l0.426,1.542l-1.43-1.02l-3.3,0.452L672.075,79.216L672.075,79.216z"/>
<path number="44" id="Aïn_Defla" fill="#FFF" stroke="#000" stroke-width="0.75" stroke-linecap="round" d="M523.346,59.481  l-5.986-4.212l-9.354-0.02l-5.456-1.63l-5.918,1.938l-7.786-1.612l-0.576,2.222l-2.938,2.196l-2.84-5.216l-4.458,3.28l-0.26,2.344  l2.992,3.244l-2.392,2.338l3.658,1.072l-2.66,1.77l0.008,2.038l1.36,1.406l1.6-0.358l-0.514,2.198l1.364,3.214l2.536,1.818  l-0.508,3.518l4.266,0.502l0.8,2.298l1.548-0.038l5.268-5.856l-0.012,2.008l5.374-1.418l0.88,1.874l2.456,0.11l1.68,2.218  l3.124,0.262l2.1-2.208l-0.674-1.752l3.97,0.148l0.634-5.552l1.722,0.468l3.684-2.222l0.126-3.686l-2.688-0.61l-0.17-2.738  l-1.418-0.398l1.25-3.82l2.692,0.086L523.346,59.481L523.346,59.481z"/>
<polygon number="45" id="Naâma" fill="#FFF" stroke="#000" stroke-width="0.75" stroke-linecap="round" points="416.745,197.433   410.905,223.633 412.587,228.533 410.807,230.513 412.145,231.394 410.966,234.553 407.846,236.273 407.285,239.953   408.947,240.893 408.405,243.153 410.365,245.353 409.566,248.413 410.427,253.194 404.447,264.713 401.186,269.514   396.365,268.474 392.745,271.134 379.165,267.333 367.505,273.533 366.905,270.414 364.144,270.333 365.226,264.593   362.364,264.354 362.044,259.574 367.785,254.394 356.244,245.093 351.487,242.733 344.785,231.373 347.307,230.533   348.066,225.733 343.665,221.553 339.785,214.713 340.165,209.573 343.604,201.953 343.405,198.113 341.044,194.073   337.446,193.053 337.864,191.273 340.427,189.413 339.326,184.373 341.707,172.974 348.927,167.713 358.905,167.773   361.364,164.953 364.405,163.993 366.587,167.253 370.846,164.113 372.024,166.153 372.707,165.313 378.625,167.113   386.745,162.093 390.427,164.173 396.686,183.713 397.327,181.453 399.025,181.533 403.207,175.753 406.487,174.334   409.227,174.733 409.566,179.673 413.165,178.053 415.264,179.553 414.865,184.853 416.365,185.413 417.827,188.993   419.346,189.213 415.104,191.474 "/>
<path number="46" id="Aïn_Témouchent" fill="#FFF" stroke="#000" stroke-width="0.75" stroke-linecap="round" d="  M370.453,122.265l-1.372,0.14l-0.524-1.82l-6.978-3.496l-0.662,0.66l-0.744-1.544l-2.162,0.91l-4.676-1.586l-1.836,2.672  l-2.166,0.528l-2.102-1.336l0.404-1.908l-1.694-1.246l5.338-3.532l3.254,0.282l4.236-2.486l4.05-11.214l1.788,0.07l4.12-3.244  l2.682,2.858l-0.444,1.434l2.016,0.014l-0.766,2.038l-1.786,0.502l0.348,3.182l0.024-1.242l1.788-0.09l-0.404-1.192l1.642,1.314  l3.14,0.042l10.132-3.248l1.552,5.842l-1.544,1.128l-0.054,2.202l-5.676,0.994l-0.136,1.456l-1.936,0.912l-1.626-1.096l-1.562,2.79  l-1.346-0.358l0.572,3.892l-2.76,0.922l-0.496,2.902L370.453,122.265L370.453,122.265z"/>
<polygon number="47" id="Ghardaïa" fill="#FFF" stroke="#000" stroke-width="0.75" stroke-linecap="round" points="  628.744,236.533 618.664,255.153 605.145,269.773 604.244,289.553 597.926,289.553 593.586,286.873 588.544,282.873   583.086,282.873 577.926,279.373 564.086,279.373 561.385,277.053 552.426,276.453 549.426,275.373 542.086,275.373   539.586,273.553 529.586,270.713 520.426,266.713 511.426,259.694 511.404,259.673 509.846,253.394 508.706,241.033   530.364,239.133 541.106,235.913 558.206,239.993 557.544,234.194 550.226,229.733 565.926,229.013 567.807,227.533   568.687,228.173 569.525,226.673 570.124,227.694 571.947,226.913 577.307,229.133 578.846,228.293 605.005,230.093 "/>
<path number="48" id="Relizane" fill="#FFF" stroke="#000" stroke-width="0.75" stroke-linecap="round" d="M448.245,105.257  l-4.094-0.636l-0.59-1.324l-3.442,0.17l-1.836-1.834l-3.78,0.082l-2.564-3.604l-1.716,1.222l-0.25-1.048l-3.432,0.986l-2.434-7.222  l-1.156-0.388l3.488-4.148l1.734-1.078l1.754,0.746l2.664-2.874l-0.454-1.82l1.18-1.984l-1.348,0.072l-0.626-1.534l1.692-2.036  l2.452,1.144l1.106-1.21l4.252-0.186l-0.718-1.742l1.268-1.398l-2.578-2.7l3.958-4.942l4.11,0.642l4.346-1.602l0.934,3.788  l1.074,0.042l-1.654,3.374l1.018-0.314l1.038,3.994l3.55-1.326l-0.694,0.488l1.186,0.082l1.082,2.358l3.126,1.97l5.676-1.626  l4.344,6.574l1.544,1.344l-2.244,2.67l-1.412-0.284l-0.664-1.786l-1.986,1.084l0.412,3.302l-1.302,2.15l-2.898,1.144l-1.136,1.972  l-4.116-0.414l-0.328,1.826l-1.622-0.22l-0.224,1.736l-2.428,0.194l-3.454,5.756L448.245,105.257L448.245,105.257z"/>
<polygon number="49" id="El_M_Ghair" fill="#FFF" stroke="#000" stroke-width="0.75" stroke-linecap="round" points="  673.424,206.033 656.424,206.353 638.825,206.673 640.145,203.233 638.784,200.053 638.085,190.793 635.904,186.613   637.624,178.613 641.564,169.233 634.224,162.713 635.645,159.013 633.244,156.293 637.025,153.653 635.585,152.393   637.784,151.133 637.964,151.253 642.364,154.173 666.085,156.694 666.664,164.213 669.844,167.233 671.344,170.553   673.005,173.713 671.304,181.233 669.984,182.453 669.885,185.253 672.164,190.453 672.244,195.553 670.325,197.694   672.684,200.633 "/>
<polygon number="50" id="El_Meniaa" fill="#FFF" stroke="#000" stroke-width="0.75" stroke-linecap="round" points="  604.244,289.553 603.606,303.794 597.265,320.093 576.284,393.514 573.124,395.694 559.606,423.873 543.145,431.134   520.864,433.074 500.327,440.694 502.566,430.914 494.025,383.433 499.307,356.873 500.665,299.634 509.966,289.333   508.524,272.113 513.686,268.754 511.426,259.694 520.426,266.713 529.586,270.713 539.586,273.553 542.086,275.373   549.426,275.373 552.426,276.453 561.385,277.053 564.086,279.373 577.926,279.373 583.086,282.873 588.544,282.873   593.586,286.873 597.926,289.553 "/>
<path number="51" id="Ouled_Djellal" fill="#FFF" stroke="#000" stroke-width="0.75" stroke-linecap="round" d="M638.784,200.053  l1.36,3.18l-1.32,3.44l-1.82,3.72l-7.84-7l-0.22-3.8l1.04-1.76l-8-2l-1.46-2.44l-3.92,0.64l-0.78-1.9l-6.52-1.24l-2.16-2.96  l-13.14-5.66l-0.9-1.38l0.8-1.04l2.68-0.26l2.74-2.94h2.4l-1.14-1.46l-4.7-0.78l-0.78-2.98l-3.78-0.54l-1.86-2.28l0.88-1.38  l3.98-1.04l1.56-2.02l-3.64-1.86l0.62-1.44l-2.44-2.54l-0.82-6.18l-1.06-0.6l4.38-3.66l1.76-3.66l9.62-0.08l3.66-2.28l1.32,0.88  l2.04-1.08l-2.6-2.18l2-0.34l1.88-3l8.78-2.64c0,0,0,0,0.02,0c3.58,0.18,7.46,0.32,7.46,0.32l1.5,3.94l1.88,1.62l0.3,2.08l2.5,1.86  l1.76,1.94v3l1.16,2.98l-0.18-0.12l-2.2,1.26l1.44,1.26l-3.78,2.64l2.4,2.72l-1.42,3.7l7.34,6.52l-3.94,9.38l-1.72,8l2.18,4.18  L638.784,200.053z"/>
<polygon number="52" id="Bordj_Baji_Mokhtar" fill="#FFF" stroke="#000" stroke-width="0.75" stroke-linecap="round" points="  524.025,890.994 519.544,892.454 516.164,886.293 511.244,881.694 508.124,880.973 504.364,884.894 501.807,882.593   500.207,883.374 497.727,882.434 495.686,883.554 493.707,880.494 490.165,880.574 483.764,874.733 481.966,866.074   469.264,861.593 466.104,857.554 459.865,858.093 458.947,855.733 460.587,844.214 459.447,838.293 403.966,801.093   403.186,797.134 220.347,661.973 178.567,629.473 178.545,629.473 178.466,629.413 204.806,619.954 218.284,619.134   472.865,690.274 471.604,803.233 479.927,801.894 488.764,802.834 489.005,803.954 491.807,817.334 504.005,829.714   508.986,839.834 512.346,851.533 512.284,863.793 516.784,870.314 523.044,885.214 "/>
<polygon number="53" id="Béni_Abbès" fill="#FFF" stroke="#000" stroke-width="0.75" stroke-linecap="round" points="  426.487,348.794 409.625,367.733 401.686,381.553 381.307,395.893 378.245,406.393 380.285,419.993 379.066,425.433   370.125,432.993 367.427,435.294 345.044,436.213 318.566,443.453 304.905,462.053 291.826,471.914 288.364,479.433   276.066,494.493 269.346,515.754 271.665,518.254 245.187,514.894 239.187,510.054 227.504,495.854 227.347,480.574   213.784,455.213 202.226,412.854 190.604,406.514 173.784,405.813 163.826,397.453 172.244,386.673 172.306,383.933   174.326,380.933 190.524,369.414 205.487,362.933 218.784,350.993 226.625,348.493 240.086,346.933 244.987,345.113   245.545,349.474 247.164,351.213 248.427,357.474 249.164,359.213 254.545,359.213 254.545,357.093 259.307,357.093   261.427,355.474 268.307,355.474 270.044,353.953 272.807,351.833 275.807,353.213 281.927,353.213 291.927,343.833   311.307,344.093 313.307,341.833 334.927,341.833 337.686,339.953 343.544,339.213 346.307,342.474 354.927,341.593   356.307,340.093 363.044,339.833 366.044,337.713 377.044,337.333 378.927,335.713 384.044,335.713 389.927,341.213   394.044,341.213 397.044,345.474 414.044,345.474 417.427,347.333 "/>
<polygon number="54" id="Timimoun" fill="#FFF" stroke="#000" stroke-width="0.75" stroke-linecap="round" points="  502.566,430.914 500.327,440.694 498.764,461.873 497.587,465.613 495.264,460.313 489.285,457.053 475.927,458.373   470.927,456.373 456.927,456.713 448.264,460.313 442.927,462.373 439.587,463.713 433.927,465.053 426.865,465.053   420.264,463.053 415.264,460.313 408.587,460.313 401.927,457.713 393.927,455.373 370.125,432.993 379.066,425.433   380.285,419.993 378.245,406.393 381.307,395.893 401.686,381.553 409.625,367.733 426.487,348.794 426.865,348.354   458.505,325.993 500.665,299.634 499.307,356.873 494.025,383.433 "/>
<path number="55" id="Touggourt" fill="#FFF" stroke="#000" stroke-width="0.75" stroke-linecap="round" d="M726.244,276.453  l-6.78-0.8l-3.3-1.62l-5.06-2.26l-5.52-2.22l-14.5-5.18l-4.08-0.42l-12.84-17.08l-0.4-11.82l-5.5-1.76l-1.58-1.74l-1.92-4.08  c0,0-5.08-4.34-5.68-4.18c-0.58,0.18,0-11.08,0-11.08l-2.66-3.62v-2.24l17-0.32l-0.74-5.4l-2.36-2.94l1.92-2.14l-0.08-5.1l-2.28-5.2  l0.1-2.8l1.32-1.22l1.1,2.1l5.46-4.28l1.52-0.22l1.04,2.08l0.64-1.6l2.42,15.32l16.2,45.94l15.56,23.16L726.244,276.453z"/>
<polygon number="56" id="Djanet" fill="#FFF" stroke="#000" stroke-width="0.75" stroke-linecap="round" points="969.745,693.973   891.185,752.194 889.745,711.074 874.784,702.613 870.365,702.714 867.045,700.673 839.245,702.314 813.464,721.554   779.105,729.874 766.625,721.093 770.565,716.613 759.404,691.894 757.325,670.014 757.804,662.454 746.624,646.394   737.664,646.113 732.005,641.754 724.624,629.274 721.364,620.934 711.244,608.654 716.164,611.954 723.164,614.214   730.424,616.214 743.924,623.214 761.685,623.214 763.425,621.954 775.925,621.714 778.165,612.714 784.425,608.954   788.165,607.473 791.685,607.473 793.925,603.214 802.685,596.954 809.925,596.954 816.464,605.214 819.925,613.714   825.925,620.473 835.425,620.954 842.425,619.214 849.925,619.473 855.165,617.214 872.145,618.173 872.904,628.093   882.425,643.494 889.365,648.834 898.185,648.353 901.265,646.093 905.525,645.814 908.585,648.793 911.165,645.554   914.585,646.033 917.165,647.074 922.245,652.134 926.265,653.454 940.425,662.194 948.645,658.233 "/>
<path number="57" id="In_Salah" fill="#FFF" stroke="#000" stroke-width="0.75" stroke-linecap="round" d="M670.304,511.594  l-13.88-0.38l-2.5,4l-4.24,4.88v4.24l2.24,5.62l-6.24,8.76l-3.14,2.5v4.88l-9.86,10l-4.14,1l-2.38,4.38c0,0-1.86,0.36-2.62,0  c-0.74-0.38-3.12-2.38-3.12-2.38l-13,0.74l-16,17.26l-5.12,0.74l-5.5-5.24l-2.26,1.74l3.38,5.38l2,2l1.5,8.38l-3.12,2.62l-0.38,4.5  l6.12,10.38l-11.5,11.24l-3.38-1.5l-2.12,1.5h-6.24l-1.26-2.62v-8.74l-5.24,0.12l-6.38,7.5l-20.5,0.74l-5.62-5.88l-8.12-1.24  l-4.26-3.62l-6.74,1.24l-3.88-3.12l-3.26,3.38l-1.5,7.24l-0.88,4.26l-3.36,16.24l-2,7l-19.16,15.36l-0.3-43.88l-17.14-24.26  l-5.42-12.08l14.96-15.36l2.38-4.9l5.26-1.62l1.78,1.62l3.48-0.4l0.28,1.64l4.7-3.36l0.94-17.76l5.12-12.88l-3.7-5.56l-0.1-12.42  l3.72-6.36l1.62-20.16l6.34-10.06l0.94-3.04l0.08-0.24l1.18-3.74l1.56-21.18l20.54-7.62l22.28-1.94l35.06,28.36l-0.3,0.82  l86.24-66.52l2.6,67.62l-3.54,16.72L670.304,511.594z"/>
<path number="58" id="In_Guezzam" fill="#FFF" stroke="#000" stroke-width="0.75" stroke-linecap="round" d="M776.065,836.014  l-13.54,9.86l-76.12,75.46l-121.02,27.54l-10.22-7.82l-1.02-2.32l4.18-5.72l0.74-3.42l2.94-3.12l-1.84-4.3l0.72-1.96l-1.94-3.12  l1.08-3.48l-1.08-1.82l0.82-7.42l-13.08-6.32l-12.62-2.66l-6.16,0.04l-5.4-2.86l-2.96-0.12l4.48-1.46l-0.98-5.78l-6.26-14.9  l-4.5-6.52l0.06-12.26l-3.36-11.7l-4.98-10.12l-12.2-12.38l-2.8-13.38l19.98-0.3l1.7-1.94l31.48,0.24l2.76-4.48l4,1.24l3,7.24  l3.5,6.76l2.74,9l6,0.5l5.26,7.26l9.5,0.48l3.5,3.26l7.5,2.26l4,5v4.48l2.5,3v5.52l-1.26,3l-1.24,9.74l2.76,3h8.74l10.26-10.26  l8.74-1.74l2.26-9.26l1.48-4l-1.48-4.48l1.74-7.26l4.26-2.5l4.24,1.5l8.24,0.5l10.52,6.76l19.24-0.26l5.24,5.74h25v-8.74l3-6l3-7.26  l2.26-7.48l2.5-5h12.24l18.26,13.24l4.5,0.76l2.24-2h5.26c0,0,10.5,8.48,11.74,10C770.725,832.134,773.325,834.054,776.065,836.014z  "/>
</svg>