<?xml version="1.0" encoding="utf-8"?>
<!-- Generator: Adobe Illustrator 16.0.0, SVG Export Plug-In . SVG Version: 6.00 Build 0)  -->
<!DOCTYPE svg PUBLIC "-//W3C//DTD SVG 1.1//EN" "http://www.w3.org/Graphics/SVG/1.1/DTD/svg11.dtd">
<?xml-stylesheet type="text/css" href="dz.css" ?>  
<svg version="1.1"
	 id="svg2" sodipodi:version="0.32" inkscape:version="0.44" sodipodi:docname="Algeria.svg" sodipodi:docbase="C:\Documents and Settings\Anis.TITANIUM\Bureau" xmlns:dc="http://purl.org/dc/elements/1.1/" xmlns:cc="http://web.resource.org/cc/" xmlns:inkscape="http://www.inkscape.org/namespaces/inkscape" xmlns:sodipodi="http://sodipodi.sourceforge.net/DTD/sodipodi-0.dtd" xmlns:rdf="http://www.w3.org/1999/02/22-rdf-syntax-ns#" xmlns:svg="http://www.w3.org/2000/svg"
	 xmlns="http://www.w3.org/2000/svg" xmlns:xlink="http://www.w3.org/1999/xlink" x="0px" y="0px" width="600px"
	 height="600px" viewBox="0 0 286.086 298.332" enable-background="new 0 0 286.086 298.332" xml:space="preserve">
<sodipodi:namedview  id="base" inkscape:window-height="727" inkscape:pageshadow="2" inkscape:pageopacity="0.0" inkscape:window-width="1024" inkscape:window-x="-4" inkscape:window-y="-4" inkscape:current-layer="svg2" borderopacity="1.0" objecttolerance="10.0" inkscape:cy="149.16605" guidetolerance="10.0" bordercolor="#666666" inkscape:zoom="1.3206759" inkscape:cx="143.04289" pagecolor="#ffffff" gridtolerance="10.0">
	</sodipodi:namedview>
<path id="Illizi" fill="#FFFFFF" stroke="#000000" stroke-width="0.25" d="M243.805,127.301l-30.219,20.156l-4.25-2l-10.75,7.25
	l7.25,5.75l1,3.75l-4.5,1l-2.5,3.75l-4.25,3l2.5,7.75l4.75,4l-1.75,4.75l3,1.75l2,4l6.5,1.5l0.5,4l2.75,3.5l-1.5,2.25l0.5,3
	l1.25,0.5l2.25,2.75l2.75,0.5l2.25,1.5l3.5,2.75c0,0-0.5-0.25,2,0.25c1.25,0.25,1.938,0.5,2.313,0.688
	c0.375,0.188,0.438,0.313,0.438,0.313l3.75,0.75l1.75,3.5l43.125-2.844l-2.688-4.281l-11.655-2.625l-5.531,0.813l-3.938-5.813
	l-0.813-6.094l-9.156-13.595l2.313-2.313l4.094-3.563l-0.219-4.47l-1.625-0.655l-0.47-7.688l1.781-3.063l0.156-3.906l-2.656-4.53
	l0.469-3.063l0.25-11.75l-6.655-12.813L243.805,127.301z"/>
<path id="Tindouf" fill="#FFFFFF" stroke="#000000" stroke-width="0.25" d="M40.43,193.613l36.875-22.781l-8.844-20.875
	l-20.563,3.75l-8.188-25.875l-6.313-0.875l1.531,3.563l-3.313,0.781l-2.313-1.031l-4.344-0.25l-3.063,3.844l-3.469-0.688
	l-5.813,3.719l-8.625,5.156l-2.34,21.219L40.43,193.613z"/>
<path id="Adrar" fill="#FFFFFF" stroke="#000000" stroke-width="0.25" d="M170.023,296.301l-0.938-27.094l-34.5-20.5l0.5-50l-3-3v-5
	l-4-5l4-1.5l3,0.5h2.5l1.5-2.5h1.5l4-3l0.5-20l2.5-5l-3-27.5l2.5-10l-0.969-10.656l-15.031,6.656l-6.25,6.25l-8.5,15l-10.25,12.75
	l-8.5-0.25l-6,1.75l-11.75,7.75l-8.5-7.25l-2.813,1.406l8.781,20.719L40.43,193.613l91.219,71.375l0.969,2.875l-2.031,2.063
	l4.844,1.844l2.813,0.438l1.531,1.531l0.281,2.063l4.344,3.063l2.031-1.781l1.78,0.5l1.813,3.313l1,0.531l5.906,1.063l3.813,1.813
	l1.031,5.563l0.25,1.781l-1,0.78l-0.781,2.281l2.719,3.125L170.023,296.301z"/>
<path id="Tamanrasset" fill="#FFFFFF" stroke="#000000" stroke-width="0.25" d="M199.055,153.082l-16.219,0.625l-13.25-1.25
	l-10.75-8.5l-12.281,0.781l1.031,9.469l-2.5,5l-0.5,20l-4,3h-1.5l-1.5,2.5h-2.5l-3-0.5l-4,1.5l4,5v5l3,3l-0.5,50l34.5,20.5
	l0.938,27.094l28.595-6.188l23.313-22.188l62.719-43.75l-4.438-7.063l-43.125,2.845l-1.75-3.5l-3.75-0.75
	c0,0-0.063-0.125-0.438-0.313c-0.375-0.188-1.063-0.438-2.313-0.688c-2.5-0.5-2-0.25-2-0.25l-3.5-2.75l-2.25-1.5l-2.75-0.5
	l-2.25-2.75l-1.25-0.5l-0.5-3l1.5-2.25l-2.75-3.5l-0.5-4l-6.5-1.5l-2-4l-3-1.75l1.75-4.75l-4.75-4l-2.5-7.75l4.25-3l2.5-3.75l4.5-1
	l-1-3.75L199.055,153.082z"/>
<path id="Ouargla" fill="#FFFFFF" stroke="#000000" stroke-width="0.25" d="M184.273,77.863l-1.438,2.469l0.875,6.531l-2.813,6.531
	l-4.438,1.781l-1.219,2.281l0.688,1.25l-3,4.406l-4.063,29.719l-3.375,2.125l-1.938,6.188h-1.219l-3.47,2.844l10.72,8.469
	l13.25,1.25l16.219-0.625l-0.469-0.375l10.75-7.25l4.25,2l30.219-20.156l-0.188-1.625l1.531-1.781l-0.969-1.281l-7.281-24.156
	l-26.313,1.313l-4.25-6.719l-4.594-14.156L184.273,77.863z"/>
<path id="El-Oued" fill="#FFFFFF" stroke="#000000" stroke-width="0.25" d="M184.273,77.863l17.469,1.031l4.594,14.156l4.25,6.719
	l26.313-1.313l-0.405-1.344l-5.125-3.813l-4.156-2.594l-1.063-5.688l-1.688-3.094l-4.219-0.375l-1.406-1.313l-0.031-2.594
	l-0.906-2.25l-1.375-3.688l0.5-3.844v-0.438h-4.5l-2.125-1.25h-2.28l-2.656-1.938h-1.78l-4.25-1.25l-1.75,0.188l-1.938,0.531
	l-1.781-0.719l-6.188-0.531l-1.594,1.969l1.938,1.563l0.719,2.656l-0.344,3.375l-1.063,0.531L184.273,77.863z"/>
<path id="Ghardaia" fill="#FFFFFF" stroke="#000000" stroke-width="0.25" d="M183.555,87.27l-9.563-2.719l-4.438,0.906l-1.563-0.906
	l-0.72,1.063l-2.655,0.188l-1.938,2.656l-3.188-0.875l-10.156,1.844v0.031v5l1.25,3.25l-1,1.25l-1.25,3l1,1.25l-3,2.75l-0.219,0.094
	l0.969,10.656l-2.5,10l1.969,18.031l12.281-0.781l0.031,0.031l3.469-2.844h1.219l1.938-6.188l3.375-2.125l4.064-29.719l3-4.406
	l-0.689-1.25l1.22-2.281l4.438-1.781L183.555,87.27z"/>
<path id="Oran" fill="#FFFFFF" stroke="#000000" stroke-width="0.25" d="M114.492,47.457l0.813-0.813l0.531-1.406l3.25-2.031
	l1.156-0.438l-0.406-1.625l-1.063,0.25l-2.25-2.156l-2.25,3.125l-3-0.375l-4.563,2l1.625,1.719v0.5l4.25-0.25l1.25,1.5H114.492z"/>
<path id="Mostaganem" fill="#FFFFFF" stroke="#000000" stroke-width="0.25" d="M120.211,42.707l0.688,0.313l1.688-0.188l0.375,0.125
	l0.375,0.625l0.438,0.063l1.188-1l1.688-0.625l0.625-2.313l1.563-1.375l0.25-0.563l1.625-3l0.313-0.813c0,0-0.299-0.327-0.438-0.5
	l-0.781,0.125l-6.125,3.594l-2.313,3.594l-1.531,0.375L120.211,42.707z"/>
<path id="Mascara" fill="#FFFFFF" stroke="#000000" stroke-width="0.25" d="M126.648,53.207c0.337-0.409,0.475-0.457,0.844-0.938
	c0.977-1.273,1.906-2.563,1.906-2.563l1.563,0.5l0.938-1v-1.625h-0.438l-1.375-0.563l-1.563-0.5l-2.375-1.188l-1.25-0.5l-0.25-1.938
	l-0.875,0.75l-0.438-0.063l-0.375-0.625l-0.375-0.125l-1.688,0.188l-0.688-0.313l0.031,0.063l-1.156,0.438l-3.25,2.031l-0.531,1.406
	l-0.813,0.813h0.094l4.25,2l0.5,2.25l1.75,0.5l1.75,0.25l1,0.75h2.75h0.064V53.207z"/>
<path id="Laghouat" fill="#FFFFFF" stroke="#000000" stroke-width="0.25" d="M173.367,84.676l-0.875-3.281l-0.719-1.063
	l-2.906-2.031l-2.844-2.563l-0.969-1.5l-1.75-1.594l-2.5-3.906l-0.438-2.219l-2.375-0.875l-1.406,1.5l-0.094,0.813l-1.875,0.094
	l-0.438,3.344l-2.469-0.188l-0.094-0.969c0,0,0.178-2.104,0.531-2.281c0.177-0.088,0.102-0.332-0.031-0.531
	c-0.133-0.199-0.313-0.375-0.313-0.375l-1.064-0.875v-1.844l-1.313-0.906l0.156-2.281l0.719-0.719l0.094-0.875l-0.438-0.094
	l-0.719-0.156l-0.344,0.156l-0.531,1.156l-1.156,0.344l-2.031,1.594l-2.219,0.188l-1.219,1.406l-0.375,1.938l-1.594,1.063
	l-2.25,1.031l1.313,2.031l4,2l4.25,6.75l-1.75,1.75l0.75,2.25l0.5,1.25l1.25,0.75l1.5,4.469l10.156-1.844l3.188,0.875l1.938-2.656
	l2.655-0.188l0.72-1.063l1.563,0.906L173.367,84.676z"/>
<path id="Djelfa" fill="#FFFFFF" stroke="#000000" stroke-width="0.25" d="M173.836,66.863l-0.125-1.656l-0.875-0.375l-0.875-0.375
	l-0.375-1.125l0.125-0.75l-1-1.375l-0.75-2.75l-0.625-0.625h-2.5l-0.25-0.625l-0.375-0.75v-1.5l-1.375-1.25l-0.75-1.25l2.375-2
	l0.75-1l0.375-2.375l-4-4l-1.5-0.75l-0.625,1.125l-0.25,0.5h-2.125l-0.75-1.375h-0.875v2.875l-1.125,0.375l-0.25,0.625l-0.875,1
	l-0.875,0.125l-1.125,0.25l-0.375-0.25l-0.375-0.625l-1.75,0.5h-0.875l-0.25,0.25l0.125,0.875v0.5l-0.125,1h1l0.5,0.625v0.75
	l0.75,0.625l0.875,0.625l1.125,0.875l-0.125,0.5c0,0-0.25-0.063-0.5-0.063s-0.5,0.063-0.5,0.313c0,0.5-0.125,1.5-0.125,1.5
	l-0.75,1.25l-0.75,0.75l-0.75,0.125l-0.5,1.25l-0.125,0.188l0.25,0.063l0.438,0.094l-0.094,0.875l-0.719,0.719l-0.156,2.281
	l1.313,0.906v1.844l1.063,0.875c0,0,0.18,0.176,0.313,0.375c0.133,0.199,0.208,0.443,0.031,0.531
	c-0.354,0.177-0.531,2.281-0.531,2.281l0.094,0.969l2.469,0.188l0.438-3.344l1.875-0.094l0.094-0.813l1.406-1.5l2.375,0.875
	l0.438,2.219l2.5,3.906l1.75,1.594l0.969,1.5l2.844,2.563l2.906,2.031l0.719,1.063l0.875,3.281l0.625-0.125l9.563,2.719l0.156-0.406
	l-0.875-6.531l2.969-5.031l-8.281-3.469l-2.125-1.063v-3l-1.219-0.344l-0.531-0.531L173.836,66.863z"/>
<path id="Tiaret" fill="#FFFFFF" stroke="#000000" stroke-width="0.25" d="M149.805,47.488l-0.313-0.219v-0.875l-0.25-0.281
	l-0.813,0.344l-0.97-0.063h-1.219l-1.345-0.281h-1.593l-1.063-0.344l-1.75-0.531l-1.156-0.625l-1.063-0.438l-0.969,0.188
	l-0.875,0.344l-1.156-0.094l-1.688,1.156l-0.594,0.25l-1.719,1.5l0.188,0.063h0.438v1.625l-0.938,1l-1.563-0.5
	c0,0-0.93,1.289-1.906,2.563c-0.369,0.48-0.506,0.528-0.844,0.938h2.438l1,1.25l0.25,0.5l-1.5,1.875l2.875,4.875l-0.875,0.75l2.75,1
	v3.25h3l0.938,1.469l2.25-1.031l1.594-1.063l0.375-1.938l1.219-1.406l2.219-0.188l2.031-1.594l1.156-0.344l0.531-1.156l0.344-0.156
	l0.469,0.094l0.125-0.188l0.5-1.25l0.75-0.125l0.75-0.75l0.75-1.25c0,0,0.125-1,0.125-1.5c0-0.25,0.25-0.313,0.5-0.313
	s0.5,0.063,0.5,0.063l0.125-0.5l-1.125-0.875l-0.875-0.625l-0.75-0.625v-0.75l-0.5-0.625h-1l0.125-1v-0.5l-0.125-0.875
	L149.805,47.488z"/>
<path id="Relizane" fill="#FFFFFF" stroke="#000000" stroke-width="0.25" d="M136.898,44.52l-0.125-0.688l0.344-1.156l1.156,0.094
	l0.813-0.719l0.438-0.719l-1.344-0.594c0,0-1.126-1.349-1.656-1.438c-0.53-0.089-4.156-1.656-4.156-1.656l-0.094-1.781l-0.281-0.094
	l-1.063,0.188c0,0-0.157-0.005-0.688-0.094c-0.011-0.002-0.14,0.031-0.156,0.031l-1,1.875l-0.25,0.563l-1.563,1.375l-0.625,2.313
	l-1.688,0.625l-0.313,0.25l0.25,1.938l1.25,0.5l2.375,1.188l1.563,0.5l1.188,0.5l1.719-1.5l0.594-0.25l1.688-1.156l1.156,0.094
	L136.898,44.52z"/>
<path id="Msila" fill="#FFFFFF" stroke="#000000" stroke-width="0.25" d="M184.242,42.77c-0.35-0.071-0.781-0.188-0.781-0.188
	l-1.063-1.156h-0.906h-1.063l-1.125,0.531l-1.781-0.188l-0.094-0.781l0.875-0.625l0.094-0.344l-0.438-0.625l-0.625-0.344
	l-1.313,0.438l-1.844-0.281c0,0-1.771-0.344-2.125-0.344c-0.177,0-0.21,0.149-0.188,0.281c0.021,0.133,0.094,0.25,0.094,0.25
	l-0.188,1.938h-1.156h-0.969l-1.5-0.781l-1.406-0.344l-0.625,0.531l-0.531,1.219l-0.156,1.5l-0.375-0.094l-0.969-0.969l-0.531,0.094
	l-0.281,0.438l0.313,0.156l4,4l-0.375,2.375l-0.75,1l-2.375,2l0.75,1.25l1.375,1.25v1.5l0.375,0.75l0.25,0.625h2.5l0.625,0.625
	l0.75,2.75l1,1.375l-0.125,0.75l0.375,1.125l0.875,0.375l0.875,0.375l0.125,1.656l1.905-0.5l-1.405-1.063l-0.875-3.531l3.53-3.719
	l3.375-0.719h2.281l1.25-0.875l0.344-3.188l-2.469-1.406h-1.25l1.594-1.594v-3l1.595-0.719h1.405l0.72,0.188l2.28-1.938l-1.75-0.719
	c0,0,0.177-0.167-0.53-0.344c-0.707-0.177-1.406-0.719-1.406-0.719l-0.188-0.188V42.77H184.242z"/>
<path id="Tissemsilt" fill="#FFFFFF" stroke="#000000" stroke-width="0.25" d="M150.898,40.645h-1.688l-0.625-0.25l-2.813,0.438
	l-1,0.438l-0.813-0.688l-0.625-0.125c0,0-0.5-0.125-0.75-0.125s-0.438,0-0.438,0l-0.688-1.375h-0.438l-0.438,0.188l-0.125,0.75
	l-0.688,0.688c0,0-0.37,0.323-0.656,0.563l0.406,0.188l-0.438,0.719l-0.813,0.719l-1.156-0.094l-0.344,1.156l0.125,0.688
	l0.406-0.156l0.969-0.188l1.063,0.438l1.156,0.625l1.75,0.531l1.063,0.344h1.595l1.344,0.281h1.219l0.969,0.063l0.813-0.344
	l0.063,0.094l0.188-0.188l-0.156-0.875l-0.906-0.875l-0.5-0.531l0.344-0.375l1.219-0.969l1.345-0.781v-0.813L150.898,40.645z"/>
<path id="Ain-Defla" fill="#FFFFFF" stroke="#000000" stroke-width="0.25" d="M141.898,32.457l-0.063,0.125l-0.938,0.688
	l0.438,0.563v0.75l-0.063,0.938l0.313,1.438l1.313,1.75l0.063,1.25l-0.063,0.438c0.19,0.036,0.438,0.063,0.438,0.063l0.625,0.125
	l0.813,0.688l1-0.438l2.813-0.438l0.625,0.25h1.688l0.469-1.25l1.219-1.219l0.813-0.813l0.345-0.781l-0.625-0.469l-0.781-0.344
	l-0.28-0.25l0.28-0.281l1.406-0.531l0.625-0.344l0.25-0.438c0,0,0.11-0.148,0.155-0.281c0.045-0.132,0.021-0.25-0.155-0.25
	c-0.354,0-1.75-0.375-1.75-0.375l-0.688-0.281l-0.094,0.031l-1.938,0.125l-2.125,0.25l-2.438-0.438h-1.688l-0.938,0.938
	l-0.313-0.125L141.898,32.457z"/>
<path id="Tipaza" fill="#FFFFFF" stroke="#000000" stroke-width="0.25" d="M157.688,27.125c-0.621,0.664-2.496,2.623-3.844,3.031
	c-0.199,0.061-0.359,0.007-0.531,0c-0.867-0.038-1.518-0.736-3.438-0.594c-0.641,0.047-1.434,0.174-2.406,0.469
	c-1.417,0.429-2.951,0.614-4.438,0.75l-0.875,1.125l-0.25,0.563l0.75,1.063l0.313,0.125l0.938-0.938h1.688l2.438,0.438l2.125-0.25
	l1.938-0.125l0.094-0.031l-0.125-0.063l0.406-0.5c0.338-0.118,0.949-0.331,1-0.344c0.25-0.063,1.25-0.375,1.25-0.375l1.5-1.25
	l0.875-0.625l0.813-0.625h0.125c-0.19-0.224-0.345-0.493-0.345-0.813v-1.031H157.688z"/>
<path id="Chlef" fill="#FFFFFF" stroke="#000000" stroke-width="0.25" d="M142.898,40.395l0.063-0.438l-0.063-1.25l-1.313-1.75
	l-0.313-1.438l0.063-0.938v-0.75l-0.438-0.563l0.938-0.688l0.313-0.688l0.875-1.125c-3.083,0.283-5.813,0.156-5.813,0.156
	l-5.875,2.406l-0.75,0.125c0.139,0.173,0.438,0.5,0.438,0.5l-0.313,0.813l-0.625,1.125c0.016,0,0.145-0.033,0.156-0.031
	c0.53,0.088,0.688,0.094,0.688,0.094l1.063-0.188l0.281,0.094l0.094,1.781c0,0,3.626,1.568,4.156,1.656
	c0.53,0.088,1.656,1.438,1.656,1.438l0.938,0.406c0.287-0.239,0.656-0.563,0.656-0.563l0.688-0.688l0.125-0.75l0.438-0.188h0.438
	l0.688,1.375c0,0,0.188,0,0.438,0C142.69,40.332,142.761,40.369,142.898,40.395z"/>
<path id="Medea" fill="#FFFFFF" stroke="#000000" stroke-width="0.25" d="M154.742,33.676c-0.051,0.116-0.125,0.25-0.125,0.25
	l-0.25,0.438l-0.625,0.344l-1.406,0.531l-0.281,0.281l0.281,0.25l0.781,0.344l0.625,0.469l-0.344,0.781l-0.813,0.813l-1.219,1.219
	l-0.531,1.406v0.813l-1.344,0.781l-1.22,0.969l-0.344,0.375l0.5,0.531l0.906,0.875l0.156,0.875l-0.188,0.188l0.188,0.188v0.875
	l0.313,0.219l0.031-0.031h0.875l1.75-0.5l0.375,0.625l0.375,0.25l1.125-0.25l0.875-0.125l0.875-1l0.25-0.625l1.125-0.375v-2.875
	h0.875l0.75,1.375h2.125l0.25-0.5l0.625-1.125l1.188,0.594l0.281-0.438l0.531-0.094l0.969,0.969l0.375,0.094l0.156-1.5l0.531-1.219
	l0.313-0.25l-0.594-1.219l-0.313-1.125l0.125-1.688c0,0,0.625-3.188,0.313-3.313c-0.299-0.12-3.263-1.757-3.531-1.906l-0.156-0.031
	l-0.875,0.563l-1.125,0.75l-0.938,0.688l-0.563,0.438h-0.563l-0.813-0.625h-0.563l-1,1l-0.438,0.063L154.742,33.676z"/>
<path id="Blida" fill="#FFFFFF" stroke="#000000" stroke-width="0.25" d="M154.742,33.676l0.656,0.406l0.438-0.063l1-1h0.563
	l0.813,0.625h0.563l0.563-0.438l0.938-0.688l1.125-0.75l0.875-0.563l0.156,0.031c-0.012-0.007-0.156-0.094-0.156-0.094l1.688-0.313
	l0.563-0.25l0.5-0.813l0.25-0.75c0,0,0.375-0.375,0.063-0.5s-2.313-0.25-2.313-0.25l-1.563,0.375l-0.938,0.375l-2.625-0.063
	l-0.813,0.625l-0.875,0.625l-1.5,1.25c0,0-1,0.313-1.25,0.375c-0.051,0.013-0.663,0.226-1,0.344l-0.406,0.5l0.813,0.344
	c0,0,1.396,0.375,1.75,0.375c0.177,0,0.2,0.118,0.155,0.25C154.768,33.662,154.75,33.658,154.742,33.676z"/>
<path id="BBA" fill="#FFFFFF" stroke="#000000" stroke-width="0.25" d="M175.773,34.238l-0.875,0.719l-2.063,2.625l-0.75,1.281
	c0.388,0.01,2.095,0.344,2.095,0.344l1.844,0.281l1.313-0.438l0.625,0.344l0.438,0.625l-0.094,0.344l-0.875,0.625l0.094,0.781
	l1.781,0.188l1.125-0.531h1.063h0.905l1.063,1.156c0,0,0.433,0.116,0.781,0.188l0.188-1l0.688-0.156v-1.781l1.25-1.406l-0.719-1.25
	l1.063-0.875l-0.156-0.344l-1.969-0.375v-0.5l-0.688-0.531h-1.781l-1.219-1.063l-1.25-0.531l-0.875,2.125l-2.313,0.688l-0.719-1.406
	L175.773,34.238z"/>
<path id="Bouira" fill="#FFFFFF" stroke="#000000" stroke-width="0.25" d="M165.305,28.676c-0.011,0.151-0.031,0.344-0.031,0.344
	l-0.25,0.75l-0.5,0.813l-0.563,0.25l-1.688,0.313c0,0,3.375,1.875,3.688,2s-0.313,3.313-0.313,3.313l-0.125,1.688l0.313,1.125
	l0.594,1.219l0.313-0.281l1.405,0.344l1.5,0.781h0.97h1.155l0.188-1.938c0,0-0.071-0.117-0.094-0.25
	c-0.022-0.132,0.011-0.281,0.188-0.281c0.004,0,0.024,0,0.03,0l0.75-1.281l2.063-2.625l0.875-0.719l0.344-1.656l0.344-0.375
	c-1.546-0.052-7.033-0.235-7.188-0.313c-0.178-0.088-0.498-0.454-0.719-0.719c-0.222-0.265-0.875-1.406-0.875-1.406l-0.375-0.406
	c0,0-0.512-0.612-0.688-0.656s-0.595-0.219-0.595-0.219L165.305,28.676z"/>
<path id="Tizi-Ouzou" fill="#FFFFFF" stroke="#000000" stroke-width="0.25" d="M167.398,29.457l0.281,0.313
	c0,0,0.653,1.141,0.875,1.406c0.221,0.265,0.541,0.63,0.719,0.719c0.154,0.077,5.642,0.261,7.188,0.313l0.875-1.031l1.438-2.125
	l-0.53-1.063l0.688-0.875l-0.313-1.281l-6.875-0.094l-0.125,1.031l-0.47,0.375l-0.688,0.625l-0.188,0.875l-0.625,0.281l-1.625,0.25
	L167.398,29.457z"/>
<path id="Boumerdes" fill="#FFFFFF" stroke="#000000" stroke-width="0.25" d="M167.398,29.457l0.625-0.281l1.625-0.25l0.625-0.281
	l0.188-0.875l0.688-0.625l0.47-0.375l0.125-1.031l-1.595-0.031l-4.844,1l-4.063-0.031l-0.063,2.094l0.28-0.125l1.563-0.375
	c0,0,2,0.125,2.313,0.25c0.1,0.04-0.025,0.087-0.031,0.156l0.719-0.188c0,0,0.418,0.175,0.595,0.219s0.688,0.656,0.688,0.656
	L167.398,29.457z"/>
<path id="Alger" fill="#FFFFFF" stroke="#000000" stroke-width="0.25" d="M157.688,27.125v1.031c0,0.319,0.152,0.588,0.345,0.813
	l2.5,0.063l0.655-0.25l0.063-2.094l-3.094-0.031C158.156,26.656,157.797,27.008,157.688,27.125z"/>
<path id="Tebessa" fill="#FFFFFF" stroke="#000000" stroke-width="0.25" d="M225.055,38.363l-4.469,0.344l-0.25,0.875l-1,0.375
	l0.125,0.625l-0.5,2.125l0.625,1.5l-2,0.5l-2,2.5l-0.375,0.375l-1.125,0.375l-0.25,3l-1.375,1.75l-0.625,2.125l0.125,1.5l1.5-1.75
	l0.625,3.25l-2,5.625l-0.656,3.313l1.094,0.656h4.5l0.75-1.219c0,0,0.82-0.432,1.845-0.688s-0.845-2.531,2.405-4.531
	c0,0,4.498-1.581,3.688-3.594c-1.116-2.772,0.5-5.281,0.5-5.281l1.281-2.125c0,0,1.487-0.921,0.438-1
	c-1.865-0.139-2.313-1.094-2.313-1.094l0.563-3.969l-1-2.906L225.055,38.363z"/>
<path id="Biskra" fill="#FFFFFF" stroke="#000000" stroke-width="0.25" d="M205.461,64.238l-0.125-1.781l0.625-3.875l-0.5-1.5
	l-2.25,0.375l-1.5-0.875l-0.25-1.25l0.25-2l-0.625-0.375l-2.375,1h-0.625l-0.125-0.875l-1.25,0.5l-0.625,0.625l-0.875-0.75
	l0.625-1.375l0.5-1.625l-2.375-0.625l-3,1.75l0.625,0.5l0.25,0.25v0.625l-2.875,0.25l-0.875,0.75c0,0-0.5,0.125-1,0
	c-0.367-0.092-1.797-0.435-2.844-0.656l-0.344,3.156l-1.25,0.875h-2.281l-3.375,0.719l-3.531,3.719l0.875,3.531l1.406,1.063
	l-2.094,0.531l0.531,0.531l1.219,0.344v3l2.125,1.063l8.281,3.469l1.625-2.75l1.063-0.531l0.344-3.375l-0.719-2.656l-1.938-1.563
	l1.594-1.969l6.188,0.531l1.781,0.719l1.938-0.531l1.75-0.188l4.25,1.25h1.781V64.238z"/>
<path id="Khenchela" fill="#FFFFFF" stroke="#000000" stroke-width="0.25" d="M215.961,46.738l-0.125-0.156l-1.75-1l-1.5,0.125
	l-0.125-0.75h-1.75l-0.75,0.625l-1-1l-2.625-0.5l-0.625,1.5l-2.375,1.125l0.25,2.375v0.5l-1,3.5l1.125,1.25v1.375l-0.219,1.719
	l1.969-0.344l0.5,1.5l-0.625,3.875l0.125,1.781l2.656,1.938h2.281l1.031,0.594l0.655-3.313l2-5.625l-0.625-3.25l-1.5,1.75
	l-0.125-1.5l0.625-2.125l1.375-1.75l0.25-3l1.125-0.375l0.375-0.375L215.961,46.738z"/>
<path id="Souk-Ahras" fill="#FFFFFF" stroke="#000000" stroke-width="0.25" d="M223.898,30.645l-1.688,1.063h-0.875l-0.75-1.125
	l-2.25,1.375l-0.25,0.75l0.5,0.25l0.25,0.625v0.125l-2.25,0.75l-0.75,0.625l-2.125,0.5l-0.625,1.125l-0.125,2l2.25,1.625l0.375,0.5
	l1,0.375l1.375-2.25l0.625,0.25l0.625,0.375l0.25,0.344l0.875-0.344l0.25-0.875l4.47-0.344l-0.095-1.938l0.25-2.188l0.375-3.469
	C225.586,30.77,224.482,31.005,223.898,30.645z"/>
<path id="Setif" fill="#FFFFFF" stroke="#000000" stroke-width="0.25" d="M181.211,33.77l0.906,0.781h1.781l0.688,0.531v0.5
	l1.969,0.375l0.156,0.344l-1.063,0.875l0.719,1.25l-1.25,1.406v1.781l-0.688,0.156l-0.188,1.063l0.188,0.188
	c0,0,0.698,0.542,1.405,0.719c0.707,0.177,0.531,0.344,0.531,0.344l1.688,0.688l1.219-0.063l0.188-0.875l-0.281-1l1.781-1.125
	l1.25,0.531l0.969-0.469l-0.813-1.313l0.969-0.344l1.969,0.781l0.594-0.156l-0.155-0.469l0.094-0.531l0.156-1.563
	c0,0,0.26-0.292-0.095-0.469c-0.354-0.177-0.969-1.75-0.969-1.75l0.188-0.875l0.438-0.906l-0.25-1.219c0,0-0.188-0.178-0.72-0.531
	c-0.53-0.353-1.5-0.375-1.5-0.375h-0.53l0.438-1.406l-0.781-0.094l-0.719-0.156l-1.063,0.344l-0.438,0.25
	c0,0,0.071-0.073-0.281-0.25c-0.209-0.104-0.312-0.122-0.469-0.188c-0.035,0.43-0.063,0.969-0.063,0.969l-0.531,0.281l-0.688,0.094
	l-0.438,1.406l-0.625,0.094l-0.625-0.438l-0.25-0.969l-0.281-1.25l-0.531-0.188l-0.781-0.156l-0.281,0.156l-1.155,0.906l-0.25,1.031
	l-0.345,0.719l-1,0.344L181.211,33.77z"/>
<path id="Bejaia" fill="#FFFFFF" stroke="#000000" stroke-width="0.25" d="M181.211,33.77l0.188-0.219l1-0.344l0.345-0.719
	l0.25-1.031l1.155-0.906l0.281-0.156l0.781,0.156l0.531,0.188l0.281,1.25l0.25,0.969l0.625,0.438l0.625-0.094l0.438-1.406
	l0.688-0.094l0.531-0.281c0,0,0.027-0.539,0.063-0.969c-0.108-0.045-0.313-0.156-0.313-0.156l-0.25-1.656l-2.969-0.125l-4.469-2.75
	l-2.625-0.031l0.313,1.281l-0.688,0.875l0.531,1.063l-1.438,2.125l-1.219,1.406l-0.375,1.781l0.719,1.406l2.313-0.688l0.875-2.125
	l1.25,0.531L181.211,33.77z"/>
<path id="Batna" fill="#FFFFFF" stroke="#000000" stroke-width="0.25" d="M206.305,44.145l-1.219-2.063l-1.375-0.25l-0.625,0.5
	l-0.625-0.25l-0.25-1h-1l-1-0.375l-1,0.5l-1-0.625h-0.875l-0.75-0.25l-0.781-0.344l-0.063,0.281l0.156,0.469l-0.594,0.156
	l-1.97-0.781l-0.969,0.344l0.813,1.313l-0.97,0.469l-1.25-0.531l-1.78,1.125l0.28,1l-0.188,0.875l-1.219,0.063l0.063,0.031
	l-2.281,1.938l-0.719-0.188h-1.406l-1.594,0.719v3l-1.595,1.594h1.25l2.47,1.406v0.031c1.047,0.221,2.478,0.564,2.844,0.656
	c0.5,0.125,1,0,1,0l0.875-0.75l2.875-0.25v-0.625l-0.25-0.25l-0.625-0.5l3-1.75l2.375,0.625l-0.5,1.625l-0.625,1.375l0.875,0.75
	l0.625-0.625l1.25-0.5l0.125,0.875h0.625l2.375-1l0.625,0.375l-0.25,2l0.25,1.25l1.5,0.875l0.281-0.031l0.219-1.719v-1.375
	l-1.125-1.25l1-3.5v-0.5l-0.25-2.375l2.375-1.125L206.305,44.145z"/>
<path id="Oum-Lebouagui" fill="#FFFFFF" stroke="#000000" stroke-width="0.25" d="M213.242,36.395l-1.063-0.219l-0.595-0.031
	l-0.313,0.25l-0.344,1.313l-0.438,0.188h-1.063l-0.72-0.625l-0.155-1.063l-0.72,0.188l-0.625,0.438l-0.595-0.188l-1.03-1.063
	l-0.875,0.531l-1.125,1h-0.25l-0.28-0.813l-0.75-0.438l-0.22,0.219l-1.063,0.875v0.313l0.188,1.375l-1.313,0.438l-1.938,0.813
	l-0.344,0.688h0.594l1,0.625l1-0.5l1,0.375h1l0.25,1l0.625,0.25l0.625-0.5l1.375,0.25l1.219,2.063l0.031-0.063l2.625,0.5l1,1
	l0.75-0.625h1.75l0.125,0.75l1.5-0.125l1.75,1l0.125,0.156l1.625-2.031l2-0.5l-0.625-1.5l0.5-2.125l-0.125-0.625l0.125-0.031
	l-0.25-0.344l-0.625-0.375l-0.625-0.25l-1.375,2.25l-1-0.375l-0.375-0.5l-2.25-1.625l0.125-2L213.242,36.395z"/>
<path id="Constantine" fill="#FFFFFF" stroke="#000000" stroke-width="0.25" d="M208.586,36.426c0.191-0.617,0.5-1.938,0.5-1.938
	l-1.125-2.156l-0.375-0.188l-0.156-0.156l-1.313-0.656l0.281-0.563l0.063-0.375l-1.375-0.281l-1-0.656l-0.219,0.031l-0.594,0.625
	l-1.25,0.063l0.188,0.219l-0.25,0.813l-0.625,0.75l-1.25,0.875l0.125,0.313l0.75,1.188l0.75,0.375l0.875,0.875l-0.281,0.281
	l0.75,0.438l0.281,0.813h0.25l1.125-1l0.875-0.531l1.031,1.063l0.594,0.188l0.625-0.438l0.719-0.188L208.586,36.426z"/>
<path id="Guelma" fill="#FFFFFF" stroke="#000000" stroke-width="0.25" d="M207.555,32.113l0.031,0.031l0.375,0.188l1.125,2.156
	c0,0-0.309,1.321-0.5,1.938l0.125,0.844l0.719,0.625h1.063l0.438-0.188l0.344-1.313l0.313-0.25l0.594,0.031l1.063,0.219l0.469-0.813
	l2.125-0.5l0.75-0.625l2.25-0.75v-0.125l-0.25-0.625l-0.5-0.25l0.25-0.75l2.031-1.25l-0.22-0.438l-0.688-0.563l-0.813-0.375
	l-1.25-0.438l-0.688-0.75l-0.03-0.031l-0.47,0.344c0,0-0.188,0.625-0.438,0.688s-1.438,0.063-1.438,0.063l-0.5-0.75l-0.688-0.688
	l-0.375-0.375l-0.125-1.656l-0.281,2.188l-0.313,0.438l-0.781,0.625l-0.813,0.813l-1.28,0.25l-0.156,0.844l-0.844,0.656
	L207.555,32.113z"/>
<path id="Skikda" fill="#FFFFFF" stroke="#000000" stroke-width="0.25" d="M207.555,32.113l0.625-0.563l0.844-0.656l0.156-0.844
	l1.281-0.25l0.813-0.813l0.781-0.625l0.313-0.438l0.28-2.188v-0.031l0.031-0.219l-0.313-0.531l-0.094-0.063l-0.25-0.469
	l-0.125-0.219l-0.938-1.5c-0.267,0.551-0.782,1.443-1.625,1.438c-1.103-0.008-6.03-0.469-6.03-0.469l-1.47-1.813h-2.344
	l-0.938,2.063c0.193,0.195,0.656,0.594,0.656,0.594l0.313,1.375l0.5,0.313v1.063l0.25,0.188l0.438,0.313l0.5,0.75l0.188,1.125
	l0.313,0.125l0.313,0.406l1.25-0.063l0.595-0.625l0.219-0.031l1,0.656l1.375,0.281l-0.063,0.375l-0.28,0.563l1.313,0.656
	L207.555,32.113z"/>
<path id="Mila" fill="#FFFFFF" stroke="#000000" stroke-width="0.25" d="M201.648,29.738l-0.625-0.031l-0.688-0.313l-0.625-0.188
	l-0.313,0.25l-0.688,1.438l-0.625-0.875l-1.938-0.375l-1,1.125l-1.688-0.563l-0.595,0.438h0.125l-0.438,1.406h0.531
	c0,0,0.97,0.021,1.5,0.375c0.529,0.354,0.719,0.531,0.719,0.531l0.25,1.219l-0.438,0.906l-0.188,0.875c0,0,0.615,1.573,0.97,1.75
	c0.354,0.177,0.094,0.469,0.094,0.469l-0.156,1.563l-0.031,0.25l0.781,0.344l0.75,0.25h0.281l0.344-0.688l1.938-0.813l1.313-0.438
	l-0.188-1.375v-0.313l1.063-0.875l0.5-0.5l-0.875-0.875l-0.75-0.375l-0.75-1.188l-0.125-0.313l1.25-0.875l0.625-0.75l0.25-0.813
	l-0.5-0.625L201.648,29.738z"/>
<path id="Jijel" fill="#FFFFFF" stroke="#000000" stroke-width="0.25" d="M198.555,23.926l-0.594,1.313l-7.5,2.219l-1.031,1.313
	l-0.75-0.031l0.25,1.656c0,0,0.428,0.167,0.781,0.344c0.354,0.177,0.281,0.25,0.281,0.25l0.438-0.25l1.063-0.344l0.719,0.156
	l0.656,0.094l0.594-0.438l1.688,0.563l1-1.125l1.938,0.375l0.625,0.875l0.688-1.438l0.313-0.25l0.625,0.188l0.688,0.313l0.625,0.031
	l-0.25-0.094l-0.188-1.125l-0.5-0.75l-0.438-0.313l-0.25-0.188v-1.063l-0.5-0.313l-0.313-1.375
	C199.211,24.52,198.748,24.121,198.555,23.926z"/>
<path id="Annaba" inkscape:transform-center-x="3.70376" inkscape:transform-center-y="10.222039" fill="#FFFFFF" stroke="#000000" stroke-width="0.25" d="
	M211.211,22.207v0.063l0.25,1.063l0.25,0.5l0.188,0.375l0.375,0.688l0.438,0.375l-0.063,0.438l0.125,1.688l0.375,0.375l0.688,0.688
	l0.5,0.75c0,0,1.188,0,1.438-0.063s0.438-0.688,0.438-0.688l0.469-0.344l-0.156-0.156l0.938-1.25l0.907-2.28l-2.282-1.345
	l-3.655-1.75L211.211,22.207z"/>
<path id="El-Taref" fill="#FFFFFF" stroke="#000000" stroke-width="0.25" d="M218.398,24.457l-0.938,2.25l-0.938,1.25l0.188,0.188
	l0.688,0.75l1.25,0.438l0.813,0.375l0.688,0.563l0.22,0.438l0.219-0.125l0.75,1.125h0.875l1.688-1.063
	c-0.256-0.158-0.35-0.387-0.344-0.875c0.006-0.599,2.905-1.781,2.905-1.781l0.031-1.906l1.905-0.906c0,0-0.188-1.397-0.53-1.625
	c-0.343-0.227-1.22,0.969-1.22,0.969s-2.688-1.136-3.219-1.031c-3.408,0.676-4.594,1.219-4.594,1.219L218.398,24.457z"/>
<path id="El-Bayadh" fill="#FFFFFF" stroke="#000000" stroke-width="0.25" d="M131.086,62.551l-6,3.156h-1.25l-1.5,2l-1.5,7.25
	l0.75,4.5l-2.25,4.75l0.5,3l-0.75,2.25l-0.25,2.5l0.75,0.25l-5.5,16.75l2.5,4l8.063,6.313l0.188-0.313l6.25-6.25l15.25-6.75l3-2.75
	l-1-1.25l1.25-3l1-1.25l-1.25-3.25v-5l-1.5-4.5l-1.25-0.75l-0.5-1.25l-0.75-2.25l1.75-1.75l-4.25-6.75l-4-2l-2.25-3.5h-3v-3.25
	L131.086,62.551z"/>
<path id="Biskra_1_" fill="#FFFFFF" stroke="#000000" stroke-width="0.25" d="M103.898,96.145l-0.188,1.406l-20.688-1.813
	l-2.313,5.125l-7.406,2.094l-2.313-1.594l-1.781,2.813l3.063,1.813h-2.063l-0.75,2.563l3.313,2.531v1.813l-5.094,0.25l-4.875,3.063
	l-6.906,1.531l-2.031,1.781l-1.031,4.625l-5.375,2.813l-6.656,1.031l-1.094-0.156l8.188,25.875l20.563-3.75l0.063,0.156l2.813-1.406
	l8.5,7.25l11.75-7.75l6-1.75l8.5,0.25l10.25-12.75l8.313-14.688l-8.063-6.313l-2.5-4l4.594-14.031l-10.594,3.281l-1-2.5l-2,0.125
	L103.898,96.145z"/>
<path id="Naama" fill="#FFFFFF" stroke="#000000" stroke-width="0.25" d="M99.773,66.738l0.063,0.25l-1.406,6l1.719,0.781v2.281
	l-0.25,4.625l1.375,1.781l-0.375,1.531l1.563,4.094l2.188,0.875l2.406,2.438l-2.75,1.563l-0.406,3.188l1.188-0.313l2-0.125l1,2.5
	l10.594-3.281l0.906-2.719l-0.75-0.25l0.25-2.5l0.75-2.25l-0.5-3l2.25-4.75l-0.75-4.5l1.406-6.719l-0.406,0.094l-1.125,1.125h-1.125
	l-0.375-1.125l-1,0.125l-2.25,1.5l-0.625-0.625l-0.5-1.5l0.125-1.75l-1.5-1.375h-1.5l-2.125,1.375l-1.5-0.75l-2.75-0.75l-1,1.125
	l-3.25,0.625L99.773,66.738z"/>
<path id="Tlemcen" fill="#FFFFFF" stroke="#000000" stroke-width="0.25" d="M106.273,64.77l0.188-0.531l2.656-1.594l0.531-0.719
	l-0.094-1.125l0.875-0.625l0.438-0.625l-1.406-1.313l-0.25-2.75l0.063-1.406l-0.781-1.875l-4.5-1.938l-0.156-2.031
	c-0.912,0.421-2.002,0.964-3.094,1.844c-0.621,0.5-1.369,0.816-2.156,1.031c-0.787,0.215-1.635,0.338-2.375,0.375
	c-1.479,0.074-2.625-0.125-2.625-0.125l0.188,1.75l3.031,1.219l1.25,5.844l1.594,1.563l-0.938,1.031l1.063,3.969l1.563-0.406
	l3.25-0.625l1-1.125L106.273,64.77z"/>
<path id="Saida" fill="#FFFFFF" stroke="#000000" stroke-width="0.25" d="M118.992,50.145l-1.844,4.813l0.094,1.688l0.719,0.969
	c0,0,0.771,0.443,1.125,0.531s1.156,1.406,1.156,1.406l0.094,1.25l-2.906,2.281l-3.031,2.5l0.563,0.5l-0.125,1.75l0.5,1.5
	l0.625,0.625l2.25-1.5l1-0.125l0.375,1.125h1.125l1.125-1.125l0.406-0.094l0.094-0.531l1.5-2h1.25l6-3.156l-0.25-0.094l0.875-0.75
	l-2.875-4.875l1.5-1.875l-0.25-0.5l-1-1.25h-2.5h-2.75l-1-0.75l-1.75-0.25l-1.75-0.5L118.992,50.145z"/>
<path id="Sidi-Bel-Abes" fill="#FFFFFF" stroke="#000000" stroke-width="0.25" d="M108.086,52.02l0.406,0.188l0.781,1.875
	l-0.063,1.406l0.25,2.75l1.406,1.313l-0.438,0.625l-0.875,0.625l0.094,1.125l-0.531,0.719l-2.656,1.594l-0.188,0.531l2.063,0.563
	l1.5,0.75l2.125-1.375h1.5l0.938,0.875l3.031-2.5l2.906-2.281l-0.094-1.25c0,0-0.803-1.318-1.156-1.406s-1.125-0.531-1.125-0.531
	l-0.719-0.969l-0.094-1.688l1.844-4.813l-0.156-0.688l-4.25-2h-0.563l-1.281,1.313h-1.156l-0.344,1.063h-1.156l-0.094,0.969
	L108.086,52.02z"/>
<path id="Ain-Timouchent" fill="#FFFFFF" stroke="#000000" stroke-width="0.25" d="M108.086,52.02l1.906-1.219l0.094-0.969h1.156
	l0.344-1.063h1.156l1.281-1.313h-0.188l-1.25-1.5l-4.25,0.25v-0.5l-1.625-1.719l-0.188,0.094l-0.75,3.344
	c0,0-0.639,0.176-1.594,0.594c-0.097,0.042-0.241,0.171-0.344,0.219l0.156,2.031L108.086,52.02z"/>
</svg>
